<svg width="50" height="50" viewBox="0 0 50 50" fill="none" xmlns="http://www.w3.org/2000/svg">
<path d="M50 25C50 38.8071 38.8071 50 25 50C11.1929 50 0 38.8071 0 25C0 11.1929 11.1929 0 25 0C31.6304 0 37.9893 2.63392 42.6777 7.32233C47.3661 12.0107 50 18.3696 50 25Z" fill="#8F69FF"/>
<path d="M39.2609 23.2251C39.7339 23.6939 40 24.3321 40 24.9979C40 25.6636 39.7339 26.3018 39.2609 26.7707L31.7645 34.2614C31.2953 34.7341 30.6566 35 29.9903 35C29.3241 35 28.6854 34.7341 28.2162 34.2614C27.7431 33.7926 27.4771 33.1544 27.4771 32.4886C27.4771 31.8228 27.7431 31.1846 28.2162 30.7158L31.4646 27.4948H12.4988C11.1187 27.4948 10 26.3769 10 24.9979C10 23.6189 11.1187 22.501 12.4988 22.501H31.4646L28.2162 19.2799C27.2364 18.3008 27.2364 16.7134 28.2162 15.7343C29.196 14.7552 30.7847 14.7552 31.7645 15.7343L39.2609 23.2251Z" fill="white"/>
</svg>
