<svg width="50" height="50" viewBox="0 0 50 50" fill="none" xmlns="http://www.w3.org/2000/svg">
<g id="Group Copy 2">
<path id="Shape" d="M0 25C0 38.8071 11.1929 50 25 50C38.8071 50 50 38.8071 50 25C50 11.1929 38.8071 0 25 0C18.3696 0 12.0107 2.63392 7.32233 7.32233C2.63392 12.0107 0 18.3696 0 25Z" fill="#8F69FF"/>
<path id="Path" d="M10.7391 23.2251C10.2661 23.6939 10 24.3321 10 24.9979C10 25.6636 10.2661 26.3018 10.7391 26.7707L18.2355 34.2614C18.7047 34.7341 19.3434 35 20.0097 35C20.6759 35 21.3146 34.7341 21.7838 34.2614C22.2569 33.7926 22.5229 33.1544 22.5229 32.4886C22.5229 31.8228 22.2569 31.1846 21.7838 30.7158L18.5354 27.4948H37.5012C38.8813 27.4948 40 26.3769 40 24.9979C40 23.6189 38.8813 22.501 37.5012 22.501H18.5354L21.7838 19.2799C22.7636 18.3008 22.7636 16.7134 21.7838 15.7343C20.804 14.7552 19.2153 14.7552 18.2355 15.7343L10.7391 23.2251Z" fill="white"/>
</g>
</svg>
