<svg width="214" height="180" viewBox="0 0 214 180" fill="none" xmlns="http://www.w3.org/2000/svg">
<path id="Path" d="M0.507631 147.688L0.00824373 21.1718C0.00824373 21.1718 -0.962555 1.00514 18.1657 0.506429C37.2941 0.00728983 141.258 0 141.258 0C141.258 0 173.717 1.10506 175.388 35.0796C175.388 35.0796 177.06 48.8947 161.857 63.5151L143.096 82.8404L207.465 147.71C219.256 157.789 214.47 178.198 198.102 179.524C187.699 180.372 180.465 170.934 174.119 163.842C162.835 151.238 94.1796 81.6784 94.1796 81.6784L127.033 48.8874C127.033 48.8874 138.317 37.2965 122.13 35.7781C105.942 34.2597 42.6829 35.7781 42.6829 35.7781C42.6829 35.7781 34.3599 35.279 34.8389 41.8304C35.3174 48.3814 34.8389 129.511 34.8389 129.511C34.8389 129.511 38.3066 139.084 44.6454 133.538C50.9846 127.992 65.7299 111.917 65.7299 111.917C65.7299 111.917 80.5083 96.6933 80.5083 96.6933C80.5083 96.6933 87.1526 103.881 91.7244 108.389C91.7244 108.389 103.987 118.975 93.6869 133.588L60.3477 167.855C60.3477 167.855 45.6304 185.997 24.054 177.935C24.0469 177.935 0.507631 169.865 0.507631 147.688Z" fill="url(#paint0_linear_0_1518)"/>
<defs>
<linearGradient id="paint0_linear_0_1518" x1="7.65323e-05" y1="0" x2="7.65323e-05" y2="180" gradientUnits="userSpaceOnUse">
<stop stop-color="#9766FF"/>
<stop offset="1" stop-color="#4C7DFB"/>
</linearGradient>
</defs>
</svg>
