<svg width="258" height="180" viewBox="0 0 258 180" fill="none" xmlns="http://www.w3.org/2000/svg">
<path d="M217.41 93.8242C217.415 116.681 208.324 138.603 192.141 154.765C175.957 170.927 154.005 180.005 131.118 180C83.4602 180 44.8252 141.417 44.8252 93.8242C44.817 84.5666 46.303 75.3683 49.2262 66.583C60.9952 31.3977 93.9711 7.66601 131.118 7.64835C162.949 7.63731 192.2 25.1331 207.213 53.1635C209.04 56.5576 210.634 60.0718 211.983 63.6818C212.17 64.1844 212.352 64.6871 212.53 65.1946V65.1994C213.321 67.4304 214.017 69.7029 214.62 72.0169C216.478 79.1372 217.416 86.4659 217.41 93.8242Z" fill="#3F3D56"/>
<path d="M121.677 35.6824C113.818 31.4385 104.438 31.0553 96.2588 34.6439C92.705 36.1884 88.9629 38.9592 87.7773 43.9626C92.5722 41.1367 98.7791 45.6017 100.013 52.7645L99.7249 52.8438C99.0733 57.805 100.528 63.2064 103.345 66.2827C103.714 63.0873 105.818 60.9126 107.888 59.5541C109.957 58.1956 112.246 57.2087 113.826 54.8736C115.698 52.1053 116.174 48.0594 116.918 44.3686C117.662 40.6777 119.073 36.7108 121.677 35.6824Z" fill="white"/>
<path d="M94.8363 77.9008C93.5084 79.8923 91.7346 81.1419 90.143 82.6979C88.5562 84.2586 87.046 86.3651 86.7297 89.0701C86.5283 90.8032 86.8399 92.565 86.7967 94.3173C86.7537 96.0695 86.1688 98.042 84.975 98.4776C83.091 99.1574 81.6528 95.6626 79.716 95.4184C78.1771 95.2269 76.7917 97.6446 77.2375 99.7416C77.6834 101.839 79.7783 102.767 80.9816 101.398C82.0699 103.222 81.3028 106.53 79.6681 107.09C79.4955 108.239 79.3229 109.384 79.1551 110.533C75.0227 107.646 70.8471 104.711 67.3331 100.484C63.4249 95.8219 61.0009 90.1001 60.3722 84.0528C59.9168 79.1934 60.5927 73.6351 58.3587 69.896C56.5705 66.9038 53.5023 66.2431 50.7409 66.4299C50.2376 66.4633 49.7295 66.5208 49.2261 66.583C50.8546 61.6986 52.9228 56.9715 55.4055 52.4598C55.9674 52.2189 56.4894 51.8945 56.954 51.4975C59.5236 49.3192 60.6646 44.9098 62.75 41.8601C62.8842 41.6638 63.0233 41.4723 63.1671 41.2856C65.3004 38.504 68.1577 37.0726 70.919 35.7416C77.0314 32.7782 83.3211 29.7763 89.7739 30.1881L87.9378 30.3652C85.7949 36.3592 83.6503 42.3532 81.5042 48.3473C81.1782 49.2664 80.849 50.1872 80.5167 51.1097C79.299 54.5183 78.0429 58.1473 78.2299 61.963C78.3402 64.2227 79.1263 66.6357 80.6221 67.4112C82.0171 68.1294 83.5416 67.2485 84.8887 66.3771C85.4592 66.0133 86.025 65.6494 86.5954 65.2807C88.6425 63.9642 90.91 62.6141 93.0721 63.495C95.0521 64.2993 96.5142 66.9851 96.7923 69.8816C97.0473 72.6972 96.3593 75.5177 94.8363 77.9008Z" fill="white"/>
<path d="M107.011 118.823C101.032 115.147 95.0539 111.471 89.0752 107.795L89.1767 107.534C85.4595 108.948 83.9162 115.546 84.5306 120.943C85.1448 126.339 87.2279 131.163 88.2802 136.421C89.6991 143.616 89.1636 151.06 86.7292 157.979C94.5907 149.17 101.548 139.596 107.497 129.4C108.328 128.115 108.961 126.713 109.375 125.24C109.755 123.674 109.697 121.79 108.936 120.534C108.447 119.813 107.785 119.225 107.011 118.823Z" fill="white"/>
<path d="M83.4158 51.9436C82.781 53.369 82.5367 55.2698 83.1128 56.7447C83.7012 58.251 84.945 58.9317 86.0901 59.4985L89.3936 61.1338C90.4926 61.6778 91.6772 62.2272 92.7975 61.7796C94.1488 61.2398 95.0857 59.1242 94.8433 57.1602C94.5854 55.0702 93.2662 53.6326 92.0462 52.4083C90.3388 50.6951 88.6315 48.9819 86.9242 47.2687L85.962 48.4456C84.9212 49.4594 84.0603 50.6421 83.4158 51.9436Z" fill="white"/>
<path d="M199.701 74.2861C201.187 74.6356 202.673 74.9851 204.159 75.3346C203.9 80.3472 201.412 84.9864 198.075 86.6667C196.685 87.3657 195.137 87.6242 193.986 88.9313C192.946 90.1186 192.419 91.9665 191.934 93.7331C191.086 96.8163 190.237 99.8995 189.389 102.983C188.478 106.305 187.308 109.996 184.94 111.193C182.907 112.223 180.582 110.964 179.019 108.852C177.456 106.741 176.502 103.902 175.577 101.135C175.635 104.151 174.23 107.11 172.241 108.158C170.246 109.206 167.82 108.259 166.488 105.917C165.529 104.237 165.131 102.02 164.191 100.316C163.252 98.6117 161.281 97.635 160.255 99.234C159.58 100.297 159.666 101.925 159.33 103.275C158.808 105.372 157.226 106.688 155.658 106.803C154.095 106.918 152.571 106.018 151.262 104.797C148.563 102.269 146.573 98.2574 145.802 93.8002C145.461 91.8133 145.365 89.6494 145.955 87.787C146.545 85.9247 147.968 84.4884 149.383 84.8427C150.313 82.8797 148.477 80.2753 146.823 80.5051C145.164 80.7349 143.865 82.5111 142.503 83.8756C141.147 85.24 139.248 86.231 137.882 84.8762C137.891 86.1353 136.865 86.9683 135.979 86.863C135.096 86.7625 134.31 86.0539 133.5 85.5512C130.37 83.6026 126.395 84.8953 124.171 88.5817C125.561 82.6739 127.599 75.8947 131.87 74.5063C133.615 73.9366 135.518 74.4058 137.167 73.4195C140.087 71.6721 140.677 65.0701 138.155 62.346C138.476 64.9216 138.414 67.9282 137.052 69.69C135.691 71.4519 132.834 70.3028 133.006 67.6984C132.613 69.4937 130.657 69.7667 129.756 68.3878C128.85 67.009 128.927 64.7541 129.569 63.1072C130.211 61.4602 131.304 60.2777 132.364 59.1431C134.641 56.7062 136.952 54.2406 139.588 52.7086C142.23 51.1766 145.279 50.6596 147.925 52.182C149.32 52.9863 150.548 54.3268 151.971 55.0354C153.395 55.7487 155.203 55.6578 156.147 53.9917C157.206 52.1341 156.708 49.3765 157.101 47.0545C157.806 42.9516 161.914 41.0318 164.191 43.7415C162.49 43.3059 160.73 45.3166 160.519 47.7535C160.303 50.1904 161.535 52.6512 163.185 53.3885C165.956 54.6141 168.669 51.5309 170.764 48.6775C172.95 45.6901 175.139 42.7042 177.332 39.72C177.682 39.2119 178.075 38.7346 178.506 38.2933C179.931 36.9063 182.189 36.8602 183.669 38.188C185.884 39.9929 186.925 43.6937 188.742 46.2407C191.378 49.9414 195.324 50.8415 198.996 51.5596C201.733 52.091 204.472 52.6256 207.213 53.1634C209.04 56.5575 210.633 60.0717 211.983 63.6817C207.342 65.6494 203.061 69.331 199.701 74.2861Z" fill="white"/>
<path d="M208.551 131.89C206.497 136.055 204.108 140.046 201.408 143.825C199.682 143.088 197.827 144.405 196.211 145.64C194.523 146.932 192.496 148.192 190.765 147.014C188.996 145.807 188.425 142.432 188.986 139.756C189.547 137.084 190.947 134.959 192.304 132.938C193.742 130.794 195.281 128.567 197.28 127.734C199.284 126.901 201.858 128.079 202.443 130.923L203.862 130.875C203.066 129.783 203.483 127.524 204.553 127.126C205.785 126.662 206.854 128.352 207.582 129.846C207.908 130.521 208.239 131.201 208.551 131.89Z" fill="white"/>
<path d="M154.203 111.668C151.153 111.859 148.737 108.109 147.131 104.421C145.526 100.732 144.061 96.5131 141.309 94.6354C139.736 93.5625 137.943 93.4153 136.238 92.8954C134.532 92.3755 132.746 91.2997 131.931 89.1089L129.996 88.3283C127.441 89.7632 124.852 91.2242 122.65 93.5592C120.181 96.1788 118.643 99.5369 118.273 103.116C117.904 106.983 119.268 111.296 121.819 112.749C123.834 113.897 126.18 113.173 128.221 114.224C130.771 115.537 132.285 119.351 132.858 123.117C133.431 126.884 133.286 130.797 133.696 134.606C134.106 138.415 135.236 142.378 137.575 144.33C140.501 146.773 144.796 144.743 146.109 140.297C146.753 138.116 146.731 135.655 147.212 133.391C148.061 129.404 150.35 126.446 152.165 123.176C153.981 119.905 155.41 115.463 154.203 111.668Z" fill="white"/>
<path d="M124.063 72.4905C124.347 72.752 124.613 73.0334 124.857 73.3326C125.373 74.2202 125.354 75.3199 124.808 76.1894C125.551 76.1472 126.242 75.7964 126.714 75.222C127.271 74.5889 127.761 73.9 128.176 73.1663C128.487 72.6598 128.818 71.9748 128.607 71.3731C128.463 70.9625 128.122 70.7873 127.883 70.4784C127.504 69.9889 127.41 69.2114 127.214 68.5396C126.791 67.0884 125.777 66.0213 124.677 65.8688L124.83 65.898C124.37 66.0553 124.049 66.7843 124.151 67.4404C124.243 68.0378 124.628 68.5338 124.589 69.1431C124.534 70.0193 123.658 70.4304 123.603 71.3067C123.595 71.7463 123.76 72.1716 124.063 72.4905Z" fill="white"/>
<path d="M118.837 57.6011C118.842 57.5999 118.846 57.5997 118.851 57.5985C118.945 57.5131 119.032 57.4206 119.111 57.3217L118.837 57.6011Z" fill="#E6E6E6"/>
<path d="M119.752 61.7138C120.427 61.2808 120.803 60.083 120.58 59.0806C120.359 58.0843 119.574 57.4145 118.851 57.5985C118.425 58.0304 117.805 58.2124 117.212 58.0803C116.765 57.9653 116.274 57.6692 115.886 58.0057C115.664 58.257 115.509 58.5598 115.435 58.8864C115.291 59.3266 115.148 59.7666 115.004 60.2067C114.936 60.3642 114.918 60.539 114.953 60.707C115.009 60.8439 115.132 60.9419 115.279 60.9654C116.14 61.219 117.001 61.4726 117.863 61.7262C118.49 61.9109 119.168 62.089 119.752 61.7138Z" fill="white"/>
<path d="M184.779 118.494C184.381 117.843 183.983 117.192 183.585 116.541C183.193 115.787 182.659 115.116 182.01 114.567C181.723 114.326 181.35 114.211 180.976 114.249C180.602 114.286 180.259 114.472 180.025 114.766L180.073 115.137C180.981 116.275 181.941 117.538 182.171 119.225C182.262 119.891 182.231 120.579 182.31 121.247C182.39 121.916 182.616 122.609 183.048 122.897C183.675 123.315 184.411 122.698 184.857 121.946C185.256 121.328 185.435 120.593 185.365 119.861C185.266 119.37 185.066 118.905 184.779 118.494Z" fill="white"/>
<path d="M202.499 93.631C202.615 92.8769 202.73 92.1227 202.845 91.3686C203.032 90.5403 203.055 89.6835 202.913 88.8463C202.848 88.4769 202.637 88.1492 202.327 87.9375C202.017 87.7258 201.635 87.6478 201.266 87.7214L201.064 88.037C201.025 89.4906 200.945 91.0746 200.033 92.5137C199.673 93.0811 199.205 93.5876 198.835 94.15C198.465 94.7124 198.191 95.388 198.336 95.8862C198.546 96.6094 199.507 96.611 200.333 96.3222C201.037 96.1059 201.647 95.6592 202.066 95.0543C202.307 94.6145 202.454 94.1301 202.499 93.631Z" fill="#E6E6E6"/>
<path d="M191.025 119.341C191.22 118.782 190.939 118.141 190.879 117.523C190.851 116.726 191.063 115.938 191.487 115.261C191.909 114.623 192.229 113.923 192.435 113.187C192.522 112.852 192.506 112.498 192.389 112.171C192.257 111.876 191.938 111.741 191.755 111.975L192.147 112.227C191.618 112.133 191.074 112.159 190.557 112.304C189.958 112.533 189.508 113.039 189.352 113.661C189.287 114.138 189.181 114.609 189.035 115.068C188.802 115.548 188.349 115.708 188.065 116.129C187.671 116.887 187.686 117.793 188.105 118.538C188.462 119.138 189.03 119.584 189.698 119.789C190.176 119.96 190.806 119.969 191.025 119.341Z" fill="white"/>
<path d="M202.148 122.692C202.321 123.142 202.553 123.567 202.838 123.956C203.37 124.491 204.094 124.162 204.74 124.032C205.934 123.844 207.136 124.325 207.869 125.285C207.36 122.753 205.652 120.625 203.288 119.578C201.765 118.958 200.161 118.899 198.578 118.843L198.304 118.913C199.001 120.939 201.19 120.894 202.148 122.692Z" fill="white"/>
<path d="M155.037 126.837L155.041 126.846C155.068 126.795 155.094 126.744 155.121 126.693L155.037 126.837Z" fill="#E6E6E6"/>
<path d="M153.35 130.099C152.982 130.766 152.665 131.46 152.403 132.176C152.056 133.334 151.826 134.525 151.717 135.729C151.631 136.414 151.605 137.289 152.034 137.623C152.29 137.792 152.631 137.745 152.832 137.514C153.07 137.262 153.266 136.972 153.41 136.656C154.254 135.204 154.91 133.65 155.361 132.032C155.772 130.328 155.768 128.321 155.041 126.846C154.477 127.93 153.913 129.015 153.35 130.099Z" fill="white"/>
<path d="M137.071 43.1974C137.619 43.7321 138.432 43.8907 139.141 43.6009C139.86 43.2873 140.519 42.8526 141.09 42.3158C141.562 41.9666 141.963 41.5298 142.27 41.0293C142.612 40.4252 142.699 39.7099 142.512 39.0416C142.245 38.2624 141.568 38.0012 140.971 37.8244C140.015 37.5412 139.059 37.2581 138.103 36.975L138.794 36.3524C138.083 35.9711 137.296 36.6789 136.851 37.5552C136.566 38.1273 136.367 38.7385 136.261 39.3689C136.023 40.7443 136.256 42.3822 137.071 43.1974Z" fill="#E6E6E6"/>
<path d="M153.95 37.5384C154.51 38.1541 155.451 38.2306 156.103 37.7133C156.649 37.3033 156.996 36.6807 157.055 36.0007C157.123 35.2497 156.751 34.4149 156.22 34.3501L156.341 33.6469C155.318 33.4624 154.059 33.4255 153.511 34.6662C153.135 35.6334 153.302 36.7274 153.95 37.5384Z" fill="#E6E6E6"/>
<path d="M151.696 0.145275C139.206 -1.26165 127.939 7.70888 126.53 20.1815C125.122 32.6542 131.701 59.7388 143.698 70.9508C149.346 49.4696 169.14 36.7282 171.759 25.2764C174.557 13.0398 164.185 1.5522 151.696 0.145275Z" fill="#8F69FF"/>
<ellipse cx="147.548" cy="20.4613" rx="7.42202" ry="7.412" fill="white"/>
<ellipse cx="139.744" cy="76.7831" rx="4.86126" ry="4.8547" fill="#8F69FF"/>
<path opacity="0.2" d="M153.688 15.1509C157.202 17.2593 158.339 21.8129 156.227 25.3216C154.116 28.8303 149.556 29.9655 146.043 27.8572C149.596 28.6465 153.198 26.7456 154.547 23.3691C155.896 19.9926 154.593 16.1376 151.472 14.2678C152.253 14.4408 153.002 14.739 153.688 15.1509Z" fill="#231F20"/>
<path opacity="0.2" d="M171.788 25.3004C169.169 36.7522 149.376 49.4936 143.727 70.9747C142.599 69.9101 141.551 68.7637 140.592 67.5448C146.94 47.3531 165.501 35.084 168.032 24.0195C170.296 14.1165 163.935 4.70515 154.806 0.729492C165.856 3.50356 174.353 14.0867 171.788 25.3004Z" fill="#231F20"/>
<path d="M82.1439 29.0658C72.7648 28.0092 64.3038 34.7458 63.2458 44.1123C62.1878 53.4788 67.129 73.8185 76.1379 82.2383C80.3798 66.1067 95.244 56.5383 97.2108 47.9384C99.3124 38.7491 91.5231 30.1223 82.1439 29.0658Z" fill="#8F69FF"/>
<ellipse cx="79.0288" cy="44.3224" rx="5.57368" ry="5.56616" fill="white"/>
<ellipse cx="73.1682" cy="86.6182" rx="3.65064" ry="3.64571" fill="#8F69FF"/>
<path opacity="0.2" d="M83.6404 40.3345C85.3472 41.3588 86.3772 43.2145 86.3424 45.2028C86.3076 47.191 85.2133 49.0097 83.4717 49.9737C81.73 50.9378 79.6057 50.9007 77.8989 49.8765C80.5673 50.4692 83.2723 49.0417 84.2852 46.5061C85.2981 43.9705 84.3198 41.0755 81.9756 39.6713C82.5627 39.8012 83.1249 40.0252 83.6404 40.3345Z" fill="#231F20"/>
<path opacity="0.2" d="M97.2323 47.9564C95.2655 56.5563 80.4013 66.1247 76.1594 82.2563C75.3122 81.4568 74.5253 80.5959 73.8052 79.6805C78.5718 64.5173 92.5108 55.3035 94.4112 46.9945C96.1119 39.5577 91.3344 32.4901 84.4791 29.5045C92.7774 31.5877 99.1582 39.5353 97.2323 47.9564Z" fill="#231F20"/>
<path d="M220.934 25.7219C217.689 24.4354 214.065 24.4891 210.859 25.871C207.654 27.253 205.129 29.85 203.841 33.0907C201.159 39.8393 200.714 55.9553 205.706 64.0325C212.124 52.8983 225.11 48.7869 228.313 42.7917C231.735 36.3855 227.692 28.4007 220.934 25.7219Z" fill="#8F69FF"/>
<ellipse cx="215.53" cy="36.4332" rx="4.29341" ry="4.28762" fill="white"/>
<ellipse cx="202.612" cy="66.6886" rx="2.8121" ry="2.8083" fill="#8F69FF"/>
<path opacity="0.2" d="M219.765 34.4001C221.403 36.1101 221.344 38.8218 219.633 40.4591C217.923 42.0964 215.207 42.0402 213.566 40.3335C215.429 41.3128 217.729 40.7978 218.995 39.1176C220.261 37.4373 220.12 35.088 218.662 33.571C219.072 33.7861 219.445 34.0661 219.765 34.4001Z" fill="#231F20"/>
<path opacity="0.2" d="M228.325 42.8095C225.122 48.8047 212.137 52.916 205.718 64.0503C205.25 63.285 204.84 62.4862 204.49 61.6604C211.102 51.3519 223.328 47.3174 226.423 41.5249C229.192 36.3405 227.072 30.1226 222.581 26.5195C228.327 29.7432 231.461 36.9388 228.325 42.8095Z" fill="#231F20"/>
<path d="M163.305 76.2507C166.55 74.9643 170.174 75.018 173.38 76.3999C176.585 77.7818 179.11 80.3788 180.398 83.6196C183.08 90.3682 183.525 106.484 178.533 114.561C172.114 103.427 159.129 99.3158 155.926 93.3206C152.504 86.9144 156.547 78.9296 163.305 76.2507Z" fill="#8F69FF"/>
<ellipse cx="4.29341" cy="4.28762" rx="4.29341" ry="4.28762" transform="matrix(-1 0 0 1 173.002 82.6745)" fill="white"/>
<ellipse cx="2.8121" cy="2.8083" rx="2.8121" ry="2.8083" transform="matrix(-1 0 0 1 184.439 114.409)" fill="#8F69FF"/>
<path opacity="0.2" d="M164.474 84.9289C162.836 86.6389 162.895 89.3507 164.606 90.988C166.316 92.6253 169.032 92.5691 170.673 90.8624C168.809 91.8417 166.51 91.3267 165.244 89.6464C163.978 87.9662 164.119 85.6169 165.577 84.0999C165.167 84.315 164.794 84.595 164.474 84.9289Z" fill="#231F20"/>
<path opacity="0.2" d="M155.914 93.3383C159.117 99.3336 172.102 103.445 178.521 114.579C178.988 113.814 179.399 113.015 179.749 112.189C173.136 101.881 160.91 97.8463 157.816 92.0538C155.046 86.8694 157.167 80.6515 161.658 77.0483C155.912 80.2721 152.777 87.4677 155.914 93.3383Z" fill="#231F20"/>
<path d="M229.14 142.482C225.023 142.482 220.511 142.326 215.603 142.015C190.218 140.4 157.338 134.786 123.017 126.208C88.6973 117.63 57.0381 107.112 33.8721 96.5916C22.5873 91.4667 13.9263 86.6156 8.12986 82.1728C1.99298 77.4694 -0.691376 73.3697 0.151045 69.9879C1.79247 63.3996 16.3265 61.9582 28.2301 61.9092L28.2341 62.8674C11.8874 62.9346 2.24365 65.5458 1.07926 70.2199C-0.403967 76.1731 11.6926 85.467 34.2671 95.719C57.3822 106.216 88.9832 116.714 123.249 125.279C157.515 133.843 190.335 139.447 215.664 141.059C240.4 142.632 255.438 140.12 256.921 134.167C258.152 129.224 250.034 121.943 234.063 113.664L234.503 112.813C246.108 118.829 259.578 127.457 257.849 134.399C257.007 137.781 252.714 140.137 245.09 141.401C240.745 142.121 235.407 142.482 229.14 142.482Z" fill="#8F69FF"/>
</svg>
