<svg width="54" height="54" viewBox="0 0 54 54" fill="none" xmlns="http://www.w3.org/2000/svg">
<circle cx="27" cy="27" r="27" fill="#8F69FF"/>
<path fill-rule="evenodd" clip-rule="evenodd" d="M26.9998 15.4846C23.8748 15.4846 23.4819 15.499 22.254 15.5537C21.0262 15.6113 20.1899 15.8042 19.4572 16.0892C18.6887 16.3782 17.9926 16.8317 17.4175 17.4178C16.8318 17.9931 16.3784 18.6891 16.0889 19.4575C15.8039 20.1887 15.6096 21.0264 15.5535 22.25C15.4988 23.4807 15.4844 23.8722 15.4844 27.0015C15.4844 30.128 15.4988 30.5195 15.5535 31.7473C15.611 32.9737 15.8039 33.81 16.0889 34.5427C16.384 35.2999 16.777 35.9418 17.4175 36.5824C18.0566 37.2229 18.6986 37.6173 19.4558 37.911C20.1899 38.196 21.0248 38.3903 22.2512 38.4465C23.4804 38.5012 23.872 38.5156 26.9998 38.5156C30.1277 38.5156 30.5178 38.5012 31.7471 38.4465C32.9721 38.3889 33.8112 38.196 34.5439 37.911C35.3119 37.6218 36.0076 37.1684 36.5822 36.5824C37.2227 35.9418 37.6157 35.2999 37.9108 34.5427C38.1943 33.81 38.3886 32.9737 38.4462 31.7473C38.5009 30.5195 38.5153 30.128 38.5153 27.0001C38.5153 23.8722 38.5009 23.4807 38.4462 22.2514C38.3886 21.0264 38.1943 20.1887 37.9108 19.4575C37.6213 18.6891 37.1679 17.9931 36.5822 17.4178C36.0073 16.8315 35.3111 16.378 34.5425 16.0892C33.8084 15.8042 32.9706 15.6098 31.7457 15.5537C30.5164 15.499 30.1263 15.4846 26.997 15.4846H26.9998ZM25.9678 17.5603H27.0013C30.0759 17.5603 30.4401 17.5704 31.6535 17.6265C32.7763 17.6769 33.3866 17.8654 33.7925 18.0223C34.3294 18.231 34.7138 18.4815 35.1168 18.8845C35.5199 19.2876 35.7689 19.6705 35.9776 20.2088C36.1359 20.6133 36.3231 21.2236 36.3734 22.3464C36.4296 23.5598 36.4411 23.924 36.4411 26.9972C36.4411 30.0704 36.4296 30.436 36.3734 31.6494C36.3231 32.7722 36.1345 33.3811 35.9776 33.787C35.793 34.287 35.4983 34.7391 35.1154 35.1098C34.7123 35.5129 34.3294 35.7619 33.7911 35.9706C33.3881 36.129 32.7777 36.3161 31.6535 36.3679C30.4401 36.4226 30.0759 36.4356 27.0013 36.4356C23.9267 36.4356 23.561 36.4226 22.3476 36.3679C21.2248 36.3161 20.616 36.129 20.21 35.9706C19.7098 35.7863 19.2573 35.4921 18.8858 35.1098C18.5025 34.7385 18.2074 34.286 18.0221 33.7856C17.8652 33.3811 17.6766 32.7708 17.6263 31.648C17.5716 30.4346 17.56 30.0704 17.56 26.9943C17.56 23.9197 17.5716 23.5569 17.6263 22.3435C17.6781 21.2207 17.8652 20.6104 18.0235 20.2045C18.2323 19.6676 18.4827 19.2833 18.8858 18.8802C19.2888 18.4772 19.6717 18.2282 20.21 18.0194C20.616 17.8611 21.2248 17.674 22.3476 17.6222C23.4099 17.5732 23.8216 17.5588 25.9678 17.5574V17.5603H25.9678ZM31.7658 20.8537C31.7658 20.0905 32.3845 19.4718 33.1477 19.4718C33.9108 19.4718 34.5295 20.0905 34.5295 20.8537C34.5295 21.6169 33.9108 22.2356 33.1477 22.2356C32.3845 22.2356 31.7658 21.6169 31.7658 20.8537ZM27.0013 21.0869C23.7351 21.0359 21.0461 23.6424 20.9951 26.9085C20.9441 30.1747 23.5506 32.8638 26.8167 32.9147C26.8783 32.9157 26.9398 32.9157 27.0013 32.9147C30.2675 32.8637 32.8739 30.1747 32.8229 26.9085C32.7731 23.7142 30.1956 21.1367 27.0013 21.0869H27.0013ZM30.8419 26.9985C30.841 24.8782 29.1215 23.1602 27.0013 23.1611C24.8811 23.1611 23.1623 24.8799 23.1623 27.0001C23.1623 29.1203 24.8811 30.839 27.0013 30.839H27.0045C29.1247 30.8381 30.8428 29.1187 30.8419 26.9985Z" fill="white"/>
</svg>
