<svg width="54" height="54" viewBox="0 0 54 54" fill="none" xmlns="http://www.w3.org/2000/svg">
<circle cx="27" cy="27" r="27" fill="#8F69FF"/>
<path fill-rule="evenodd" clip-rule="evenodd" d="M17.9851 16.4331C17.1279 16.4331 16.4331 17.1107 16.4331 17.9468V36.0534C16.4331 36.8895 17.1279 37.5671 17.9851 37.5671H36.0151C36.8723 37.5671 37.5671 36.8895 37.5671 36.0534V17.9468C37.5671 17.1107 36.8723 16.4331 36.0151 16.4331H17.9851ZM22.9622 24.5816V34.1249H19.7908V24.5816H22.9622ZM21.3771 23.2779C22.4827 23.2779 23.1709 22.5461 23.1709 21.6294C23.1511 20.6929 22.484 19.981 21.3983 19.981C20.3125 19.981 19.6032 20.6942 19.6032 21.6294C19.6032 22.5461 20.2914 23.2779 21.356 23.2779H21.3771H21.3771ZM27.86 28.7952V34.1249H24.6899C24.6899 34.1249 24.7295 25.4771 24.6899 24.5816H27.86V25.9315L27.8389 25.9645H27.86V25.9315C28.2827 25.2803 29.0369 24.3557 30.7197 24.3557C32.8067 24.3557 34.3706 25.7189 34.3706 28.6512V34.1249H31.1992V29.0197C31.1992 27.7358 30.7408 26.8614 29.593 26.8614C28.7159 26.8614 28.1942 27.4518 27.9657 28.0211C27.8811 28.2246 27.86 28.5099 27.86 28.7952Z" fill="white"/>
</svg>
