<svg width="54" height="54" viewBox="0 0 54 54" fill="none" xmlns="http://www.w3.org/2000/svg">
<g id="Group">
<circle id="Oval" cx="27" cy="27" r="27" fill="#8F69FF"/>
<path id="Path" d="M22.6425 36.5243C31.4894 36.5243 36.329 29.1939 36.329 22.8481C36.329 22.6429 36.3289 22.4349 36.3202 22.2297C37.2624 21.5477 38.0756 20.7032 38.7216 19.736C37.8415 20.124 36.9088 20.3798 35.9539 20.4949C36.9598 19.8937 37.7132 18.9476 38.074 17.8327C37.1289 18.3925 36.0945 18.7856 35.0161 18.9946C33.196 17.0561 30.149 16.9602 28.2105 18.7804C26.9587 19.9558 26.4277 21.7089 26.8168 23.3814C22.9491 23.1875 19.3454 21.3614 16.9018 18.3572C15.6287 20.556 16.2814 23.3654 18.3934 24.7777C17.6308 24.7518 16.885 24.5471 16.2161 24.1799V24.2459C16.2188 26.5339 17.8304 28.5044 20.0725 28.9609C19.6597 29.0746 19.2332 29.1313 18.8051 29.1294C18.5032 29.1303 18.202 29.1023 17.9054 29.0459C18.5356 31.0046 20.3419 32.3457 22.3992 32.3821C20.6945 33.7211 18.5888 34.4472 16.4212 34.4437C16.0392 34.4453 15.6576 34.4233 15.2783 34.3778C17.4784 35.7804 20.0333 36.5251 22.6425 36.5243L22.6425 36.5243Z" fill="white"/>
</g>
</svg>
