<svg width="27" height="22" viewBox="0 0 27 22" fill="none" xmlns="http://www.w3.org/2000/svg">
<path d="M8.48139 22C18.6705 22 24.2443 13.5338 24.2443 6.20485C24.2443 5.96793 24.2443 5.72764 24.2342 5.49073C25.3193 4.70298 26.2559 3.7277 27 2.61058C25.9863 3.05876 24.9122 3.35415 23.8123 3.48715C24.9708 2.79273 25.8385 1.70012 26.2541 0.412391C25.1657 1.05903 23.9743 1.51296 22.7323 1.75432C20.636 -0.484473 17.1268 -0.595231 14.8942 1.50695C13.4525 2.86447 12.8409 4.88923 13.2891 6.82082C8.83459 6.59683 4.68415 4.48783 1.86975 1.01821C0.403549 3.55762 1.15524 6.80232 3.58763 8.4335C2.70935 8.40357 1.85038 8.16708 1.08 7.74308V7.81922C1.08312 10.4618 2.9393 12.7376 5.52149 13.2648C5.04606 13.3961 4.55494 13.4616 4.06181 13.4594C3.71415 13.4604 3.3672 13.4281 3.02568 13.3629C3.75148 15.6252 5.8318 17.1739 8.20124 17.2161C6.23793 18.7624 3.81274 19.6011 1.31625 19.597C0.876351 19.5989 0.436765 19.5735 0 19.5209C2.53381 21.1408 5.47644 22.0009 8.48138 22L8.48139 22Z" fill="white"/>
</svg>
