<svg width="161" height="44" viewBox="0 0 161 44" fill="none" xmlns="http://www.w3.org/2000/svg">
<g id="Group">
<path id="Path" d="M0.128094 36.1016L0.00208019 5.17534C0.00208019 5.17534 -0.242888 0.245701 4.58388 0.123794C9.41065 0.00178196 35.6446 0 35.6446 0C35.6446 0 43.835 0.270123 44.2568 8.575C44.2568 8.575 44.6786 11.952 40.8423 15.5259L36.1084 20.2499L52.351 36.1068C55.3262 38.5707 54.1187 43.5596 49.9883 43.8837C47.3632 44.091 45.5379 41.7839 43.9365 40.0502C41.0891 36.9694 23.7649 19.9658 23.7649 19.9658L32.0551 11.9502C32.0551 11.9502 34.9025 9.11693 30.8178 8.74576C26.7331 8.37459 10.7705 8.74576 10.7705 8.74576C10.7705 8.74576 8.67027 8.62375 8.79112 10.2252C8.91186 11.8266 8.79112 31.6582 8.79112 31.6582C8.79112 31.6582 9.66615 33.9983 11.2657 32.6427C12.8653 31.287 16.5861 27.3576 16.5861 27.3576C16.5861 27.3576 19.3092 23.66 23.1454 26.4951C23.1454 26.4951 26.2396 29.0828 23.6406 32.655L15.2279 41.0312C15.2279 41.0312 11.5142 45.4659 6.0697 43.4951C6.06791 43.4951 0.128094 41.5226 0.128094 36.1016Z" fill="url(#paint0_linear_0_2859)"/>
<path id="Combined Shape" fill-rule="evenodd" clip-rule="evenodd" d="M136.93 24.5201L143.107 4.33544C143.557 2.8666 144.338 1.77682 145.45 1.06609C146.563 0.355364 147.734 0 148.965 0C150.219 0 151.397 0.355364 152.497 1.06609C153.598 1.77682 154.373 2.8666 154.823 4.33544L161 24.5201H154.29L153.18 20.469H156.172V14.6055H151.573L149.284 6.25441C149.213 6.0175 149.119 5.89904 149 5.89904C148.882 5.89904 148.787 6.0175 148.716 6.25441L146.395 14.6055H142.433V20.469H144.766L143.64 24.5201H136.93ZM144.766 20.469L146.395 14.6055H151.573L153.18 20.469H144.766ZM59.0039 24.5201H65.5007L65.5274 17.7682H66.7432C67.4533 17.7682 68.045 17.8393 68.5183 17.9814C68.9917 18.1236 69.394 18.3605 69.7254 18.6921C70.0567 19.0238 70.3526 19.4621 70.6129 20.007L72.8495 24.5201H79.9853L77.5357 19.4739C76.8967 18.1709 76.305 17.1404 75.7606 16.3823C75.3976 15.8767 74.9741 15.466 74.4901 15.1501C74.9474 15.0035 75.3768 14.8102 75.7784 14.5699C76.8079 13.954 77.6126 13.1189 78.1925 12.0646C78.7723 11.0104 79.0623 9.81989 79.0623 8.4932C79.0623 6.71638 78.6244 5.24162 77.7487 4.06892C76.873 2.89622 75.6778 2.01373 74.1631 1.42146C72.6483 0.829183 70.9443 0.533046 69.0508 0.533046H59.0039V24.5201ZM65.5505 11.9402H69.0508C69.6899 11.9402 70.2579 11.8277 70.7549 11.6026C71.2519 11.3776 71.6365 11.0577 71.9087 10.6431C72.1809 10.2286 72.317 9.73697 72.317 9.16839C72.317 8.55242 72.1809 8.05492 71.9087 7.67586C71.6365 7.29681 71.2579 7.01844 70.7727 6.84075C70.2875 6.66307 69.7372 6.57423 69.1218 6.57423H65.5717L65.5505 11.9402ZM128.03 32.889L124.683 43.7299H127.478L128.222 41.1545L133.333 41.1504L134.07 43.7299H136.865L133.518 32.889C133.305 32.1979 132.945 31.6858 132.438 31.3527C131.931 31.0196 131.376 30.853 130.774 30.853C130.185 30.853 129.633 31.0196 129.12 31.3527C128.607 31.6858 128.244 32.1979 128.03 32.889ZM132.633 38.6995H134.55V41.1495L133.333 41.1504L132.633 38.6995ZM128.931 38.6995L130.377 33.6907C130.451 33.4407 130.587 33.3156 130.787 33.3156C130.986 33.3156 131.125 33.4407 131.203 33.6907L132.633 38.6995H128.931ZM128.931 38.6995H127.251V41.1553L128.222 41.1545L128.931 38.6995ZM63.9064 43.9818C62.7746 43.9818 61.7769 43.7449 60.9132 43.271C60.0496 42.7971 59.4131 42.1092 59.0039 41.2072L61.2878 40.0642C61.4951 40.5246 61.8193 40.8707 62.2604 41.1025C62.7016 41.3344 63.2502 41.4503 63.9064 41.4503C64.3035 41.4503 64.656 41.3988 64.9639 41.2959C65.2719 41.193 65.5179 41.0386 65.7019 40.8328C65.8859 40.6269 65.9779 40.3736 65.9779 40.0727C65.9779 39.7216 65.8776 39.4563 65.6771 39.2768C65.4766 39.0974 65.2035 38.9612 64.8577 38.8682C64.512 38.7753 64.1192 38.6937 63.6793 38.6235C63.2042 38.5402 62.708 38.4267 62.1906 38.2828C61.6731 38.1389 61.1868 37.927 60.7317 37.6472C60.2766 37.3673 59.9091 36.9954 59.6292 36.5314C59.3493 36.0674 59.2093 35.4802 59.2093 34.7698C59.2093 34.0303 59.4118 33.367 59.8167 32.7799C60.2216 32.1928 60.7718 31.728 61.4671 31.3853C62.1625 31.0426 62.9447 30.8712 63.8138 30.8712C64.858 30.8712 65.7986 31.1051 66.6356 31.5729C67.4726 32.0408 68.0917 32.7258 68.4927 33.6279L66.2146 34.7768C66.0074 34.3673 65.6954 34.0359 65.2788 33.7828C64.8621 33.5296 64.3359 33.403 63.7001 33.403C63.3565 33.403 63.0537 33.4533 62.7918 33.5539C62.5299 33.6545 62.3237 33.8005 62.1734 33.9918C62.0231 34.1832 61.948 34.4088 61.948 34.6686C61.948 35.007 62.0556 35.2724 62.2708 35.4646C62.4861 35.6569 62.7761 35.8047 63.1408 35.9081C63.5054 36.0116 63.9161 36.1046 64.3728 36.1873C64.8479 36.2706 65.3378 36.3842 65.8425 36.528C66.3472 36.6719 66.8167 36.8838 67.2508 37.1636C67.6849 37.4435 68.0377 37.8143 68.3091 38.2762C68.5805 38.738 68.7162 39.3284 68.7162 40.0472C68.7162 40.8027 68.5012 41.4761 68.071 42.0671C67.6409 42.6582 67.0626 43.1251 66.3361 43.4678C65.6095 43.8105 64.7996 43.9818 63.9064 43.9818ZM74.2073 43.487C75.0059 43.8165 75.8701 43.9812 76.8001 43.9812C77.7385 43.9812 78.6038 43.8165 79.3961 43.487C80.1883 43.1575 80.8836 42.6966 81.4818 42.1042C82.08 41.5119 82.5437 40.8153 82.8731 40.0143C83.2024 39.2134 83.3671 38.3478 83.3671 37.4174C83.3671 36.4912 83.2024 35.6296 82.8731 34.8327C82.5437 34.0358 82.081 33.3412 81.4847 32.749C80.8885 32.1567 80.1932 31.6958 79.399 31.3662C78.6048 31.0366 77.7385 30.8718 76.8001 30.8718C75.8701 30.8718 75.0059 31.0366 74.2073 31.3662C73.4088 31.6958 72.7105 32.1567 72.1123 32.749C71.514 33.3412 71.0503 34.0358 70.7209 34.8327C70.3916 35.6296 70.227 36.4912 70.227 37.4174C70.227 38.3478 70.3916 39.2134 70.7209 40.0143C71.0503 40.8153 71.514 41.5119 72.1123 42.1042C72.7105 42.6966 73.4088 43.1575 74.2073 43.487ZM78.2699 41.0811C77.8122 41.2842 77.3222 41.3858 76.8001 41.3858C76.2739 41.3858 75.7819 41.2842 75.3241 41.0811C74.8663 40.878 74.4666 40.5971 74.125 40.2384C73.7834 39.8796 73.5173 39.4587 73.3269 38.9755C73.1364 38.4924 73.0412 37.973 73.0412 37.4174C73.0412 36.8574 73.1364 36.3389 73.3269 35.862C73.5173 35.3851 73.7834 34.9673 74.125 34.6087C74.4666 34.25 74.8663 33.9701 75.3241 33.769C75.7819 33.5678 76.2739 33.4673 76.8001 33.4673C77.3261 33.4673 77.817 33.5678 78.2728 33.769C78.7287 33.9701 79.1274 34.25 79.469 34.6087C79.8107 34.9673 80.0767 35.3851 80.2671 35.862C80.4576 36.3389 80.5528 36.8574 80.5528 37.4174C80.5528 37.973 80.4576 38.4924 80.2671 38.9755C80.0767 39.4587 79.8107 39.8796 79.469 40.2384C79.1274 40.5971 78.7277 40.878 78.2699 41.0811ZM88.322 43.7299H85.5836V33.4573C85.5836 32.7383 85.7707 32.1664 86.1448 31.7416C86.519 31.3168 87.1387 31.1044 88.0041 31.1044H94.6273V33.63H88.322V36.9286H87.3325L87.6926 39.4543H88.322V43.7299ZM94.196 39.4543H88.322V36.9286H94.196V39.4543ZM105.593 33.63V31.1044H101.879V33.63H99.1404V31.1044H95.4319V33.63H99.1404V43.7299H101.879V33.63H105.593ZM106.183 31.1044L108.511 41.9435C108.654 42.61 108.932 43.1193 109.347 43.4716C109.762 43.8239 110.264 44 110.855 44C111.4 44 111.884 43.8281 112.307 43.4843C112.731 43.1406 113.014 42.6649 113.156 42.0573L115.063 33.7216L117 41.9969C117.154 42.6326 117.442 43.1244 117.863 43.4722C118.285 43.82 118.774 43.9938 119.33 43.9938C119.937 43.9938 120.442 43.8107 120.845 43.4445C121.247 43.0782 121.518 42.5618 121.656 41.8951L123.9 31.1044H121.162L119.253 41.1034C119.249 41.1296 119.244 41.1512 119.237 41.1682C119.229 41.1852 119.221 41.1937 119.21 41.1937C119.196 41.1937 119.187 41.1862 119.184 41.1712C119.183 41.1642 119.18 41.1556 119.177 41.1455C119.174 41.1336 119.168 41.1196 119.162 41.1034L117.296 33.0943C117.128 32.3297 116.855 31.7741 116.475 31.4275C116.096 31.0809 115.625 30.9076 115.063 30.9076C114.504 30.9076 114.038 31.0819 113.662 31.4304C113.287 31.779 113.012 32.3357 112.835 33.1004L111.011 41.1096C111.012 41.1436 111.006 41.165 110.993 41.1738C110.979 41.1826 110.968 41.187 110.957 41.187C110.951 41.187 110.943 41.1816 110.934 41.1709C110.925 41.1601 110.916 41.1397 110.909 41.1096L108.921 31.1044H106.183ZM139.009 43.7299H141.716L141.729 39.6927H142.801C143.277 39.6927 143.667 39.7604 143.971 39.896C144.276 40.0316 144.535 40.2323 144.751 40.498C144.966 40.7638 145.166 41.0889 145.352 41.4735L146.473 43.7299H149.445L148.224 41.228C147.882 40.5319 147.56 39.9615 147.256 39.5169C146.99 39.1265 146.671 38.8253 146.3 38.6131C146.592 38.5357 146.863 38.4273 147.115 38.2878C147.678 37.9746 148.119 37.5447 148.435 36.998C148.751 36.4513 148.909 35.8256 148.909 35.1208C148.909 34.2188 148.688 33.4713 148.246 32.8781C147.803 32.285 147.202 31.8411 146.442 31.5464C145.683 31.2517 144.829 31.1044 143.881 31.1044H139.009V43.7299ZM141.736 37.2494H143.869C144.303 37.2494 144.689 37.1769 145.026 37.032C145.363 36.887 145.626 36.6768 145.816 36.4014C146.006 36.1259 146.101 35.7898 146.101 35.3929C146.101 34.975 146.005 34.6377 145.813 34.3811C145.621 34.1245 145.359 33.9352 145.026 33.8131C144.693 33.691 144.32 33.63 143.906 33.63H141.748L141.736 37.2494ZM154.2 43.7299H161V41.2679H154.518V38.6481H160.481V36.1861H154.518V33.5664H160.882V31.1044H154.2C153.335 31.1044 152.715 31.3168 152.341 31.7416C151.967 32.1664 151.78 32.7383 151.78 33.4573V41.377C151.78 42.096 151.967 42.6679 152.341 43.0927C152.715 43.5175 153.335 43.7299 154.2 43.7299ZM154.518 36.1861V38.6481H153.883L153.529 36.1861H154.518ZM89.5707 24.5201H102.032V18.6566H90.4583V15.4583H101.038V9.59483H90.4583V6.39655H101.854V0.533046H89.5707C87.559 0.533046 86.1093 1.03056 85.2218 2.02557C84.3343 3.02059 83.8905 4.35913 83.8905 6.04119V19.012C83.8905 20.694 84.3343 22.0326 85.2218 23.0276C86.1093 24.0226 87.559 24.5201 89.5707 24.5201ZM88.1507 9.59483H90.4583V15.4583H89.0382L88.1507 9.59483ZM113.215 18.4789V0.533046H106.647V19.012C106.647 20.694 107.091 22.0326 107.978 23.0276C108.866 24.0226 110.315 24.5201 112.327 24.5201H123.794V18.4789H113.215ZM126.989 0.533046H133.557V24.5201H126.989V0.533046Z" fill="url(#paint1_linear_0_2859)"/>
</g>
<defs>
<linearGradient id="paint0_linear_0_2859" x1="1.93119e-05" y1="0" x2="1.93119e-05" y2="44" gradientUnits="userSpaceOnUse">
<stop stop-color="#9766FF"/>
<stop offset="1" stop-color="#4C7DFB"/>
</linearGradient>
<linearGradient id="paint1_linear_0_2859" x1="59.0039" y1="0" x2="59.0039" y2="44" gradientUnits="userSpaceOnUse">
<stop stop-color="#9766FF"/>
<stop offset="1" stop-color="#4C7DFB"/>
</linearGradient>
</defs>
</svg>
