<svg width="179" height="109" viewBox="0 0 179 109" fill="none" xmlns="http://www.w3.org/2000/svg">
<g id="undraw_devices_re_dxae">
<path id="Path" d="M77.4669 39.4856H25.821C24.6851 39.487 23.7645 40.4063 23.7632 41.5408V51.7872C26.3394 51.8478 28.0116 53.9708 28.4168 56.5481V65.8371H28.6124C28.6772 65.8373 28.7296 65.8897 28.7298 65.9543V70.8971C28.7296 70.9618 28.6772 71.0141 28.6124 71.0143H28.4168V100.889C28.4168 101.546 28.4102 102.743 28.4102 102.743H77.4669C78.6029 102.742 79.5234 101.823 79.5248 100.688V41.5408C79.5234 40.4063 78.6029 39.487 77.4669 39.4856Z" fill="#E6E6E6"/>
<path id="Path_2" d="M173.423 5.77075V61.8383H83.0965V37.1529C83.0942 34.8191 81.2003 32.9277 78.8634 32.9254H61.9233V5.77075H173.423Z" fill="#E6E6E6"/>
<path id="Path_3" d="M179 69.7425H83.1975V69.3518H178.609V3.32107C178.607 1.70344 177.295 0.392545 175.675 0.390712H58.5022C56.8824 0.392547 55.5698 1.70344 55.568 3.32107V32.6724H55.1768V3.32107C55.1788 1.48775 56.6665 0.0020633 58.5022 0H175.675C177.51 0.00206039 178.998 1.48775 179 3.32107V69.7425Z" fill="#3F3D56"/>
<path id="Path_4" d="M169.922 81.6593H83.1973V81.2686H169.922C174.717 81.2632 178.603 77.3825 178.609 72.5937V69.7425H83.1973V69.3518H179V72.5937C178.994 77.5982 174.933 81.6537 169.922 81.6593Z" fill="#3F3D56"/>
<path id="Path_5" d="M144.184 100.804C139.35 96.1681 136.169 90.1188 135.147 81.6593H99.5151C99.1526 89.5737 95.9924 95.5094 90.2918 100.783L89.6895 100.804C95.571 95.4812 98.8105 89.502 99.1322 81.4561L99.1397 81.2686H135.495L135.515 81.4413C136.519 90.0442 139.766 96.1324 144.72 100.773L144.184 100.804Z" fill="#3F3D56"/>
<path id="Path_6" d="M78.7687 108.887H23.88V108.496H78.7687C81.1053 108.493 82.9989 106.602 83.0016 104.269V37.2428C82.999 34.9092 81.1054 33.0181 78.7687 33.0155H23.88C21.5433 33.0181 19.6497 34.9092 19.6471 37.2428V51.7075H19.2559V37.2428C19.2587 34.6935 21.3273 32.6277 23.88 32.6248H78.7687C81.3213 32.6276 83.3899 34.6935 83.3928 37.2428V104.269C83.3899 106.818 81.3213 108.884 78.7687 108.887Z" fill="#3F3D56"/>
<path id="Shape" fill-rule="evenodd" clip-rule="evenodd" d="M49.998 36.243C49.9981 36.9746 50.5919 37.5677 51.3245 37.5677C52.0568 37.5668 52.6501 36.9742 52.651 36.2429C52.651 35.5113 52.0571 34.9182 51.3245 34.9182C50.5919 34.9182 49.998 35.5113 49.998 36.243ZM50.3823 35.8532C50.5401 35.4726 50.912 35.2244 51.3245 35.2244V35.2244C51.8875 35.2251 52.3437 35.6807 52.3444 36.2429C52.3444 36.6549 52.0959 37.0263 51.7148 37.1839C51.3337 37.3416 50.8951 37.2545 50.6034 36.9632C50.3117 36.6719 50.2244 36.2338 50.3823 35.8532Z" fill="#3F3D56"/>
<path id="Shape_2" fill-rule="evenodd" clip-rule="evenodd" d="M49.6318 105.699C49.6318 106.632 50.3896 107.389 51.3244 107.389C52.2587 107.388 53.0159 106.632 53.017 105.699C53.0169 104.765 52.2591 104.009 51.3244 104.009C50.3896 104.009 49.6318 104.765 49.6318 105.699ZM50.1221 105.202C50.3235 104.716 50.798 104.399 51.3244 104.399C52.0427 104.4 52.6249 104.981 52.6257 105.699C52.6258 106.224 52.3087 106.698 51.8224 106.9C51.3362 107.101 50.7764 106.99 50.4042 106.618C50.032 106.246 49.9207 105.687 50.1221 105.202Z" fill="#3F3D56"/>
<path id="Shape_3" fill-rule="evenodd" clip-rule="evenodd" d="M5.15927 109H23.3289C26.177 108.997 28.4849 106.692 28.4882 103.847V71.6776C28.6776 71.5986 28.801 71.4137 28.8012 71.2087L28.8013 65.7373C28.801 65.5323 28.6776 65.3474 28.4882 65.2684V56.8597C28.485 54.0154 26.177 51.7105 23.329 51.7073H5.15924C2.31121 51.7105 0.00322821 54.0154 0 56.8597V103.847C0.00318881 106.692 2.3112 108.997 5.15927 109ZM0.391223 56.8597C0.394229 54.2311 2.52718 52.101 5.15923 52.098H23.3289C25.961 52.101 28.094 54.2311 28.097 56.8597V65.62H28.2926C28.3574 65.6201 28.4099 65.6726 28.41 65.7373L28.41 71.2087C28.4099 71.2734 28.3574 71.3258 28.2926 71.3259H28.097V103.847C28.0939 106.476 25.961 108.606 23.3289 108.609H5.15926C2.52716 108.606 0.394176 106.476 0.391223 103.847V56.8597Z" fill="#3F3D56"/>
<path id="Path_7" d="M23.5294 53.1924H21.1577C21.3791 53.7347 21.3158 54.3515 20.9887 54.8377C20.6616 55.3238 20.1136 55.6154 19.5271 55.6154H9.11796C8.5315 55.6154 7.98354 55.3238 7.65642 54.8377C7.3293 54.3515 7.26594 53.7347 7.48743 53.1924H5.27222C3.22502 53.1924 1.56544 54.8498 1.56543 56.8943V103.813C1.56543 105.858 3.22502 107.515 5.27222 107.515H23.5294C25.5766 107.515 27.2362 105.858 27.2362 103.813V56.8943C27.2362 54.8498 25.5766 53.1924 23.5294 53.1924Z" fill="#E6E6E6"/>
<path id="Shape_4" fill-rule="evenodd" clip-rule="evenodd" d="M90.12 108.814H144.305C146.572 108.812 148.41 106.976 148.41 104.711C148.41 102.447 146.572 100.611 144.305 100.609H90.12C88.6516 100.608 87.2942 101.389 86.5597 102.659C85.8252 103.929 85.8252 105.494 86.5597 106.764C87.2942 108.033 88.6516 108.815 90.12 108.814ZM86.4033 104.711C86.4033 102.661 88.0673 101 90.12 101H144.305C146.358 101 148.022 102.661 148.022 104.711C148.022 106.761 146.358 108.423 144.305 108.423H90.12C88.0673 108.423 86.4033 106.761 86.4033 104.711Z" fill="#3F3D56"/>
</g>
</svg>
