<svg width="383" height="220" viewBox="0 0 383 220" fill="none" xmlns="http://www.w3.org/2000/svg">
<ellipse cx="82.9855" cy="175.372" rx="19.9182" ry="19.9124" fill="#F2F2F2"/>
<ellipse cx="86.2243" cy="172.458" rx="19.9182" ry="19.9124" fill="#8F69FF"/>
<rect x="102.265" y="150.425" width="246.441" height="0.672225" fill="#3F3D56"/>
<path d="M229.898 6.26926H142.426V4.46692H102.763V6.26926H14.9312C13.362 6.26926 11.857 6.89245 10.7474 8.00174C9.63778 9.11104 9.0144 10.6156 9.0144 12.1843V131.925C9.0144 135.192 11.6634 137.84 14.9312 137.84H229.898C233.165 137.84 235.814 135.192 235.814 131.925V12.1843C235.814 10.6156 235.191 9.11104 234.081 8.00174C232.972 6.89245 231.467 6.26926 229.898 6.26926V6.26926Z" fill="#3F3D56"/>
<rect x="16.947" y="16.7228" width="210.935" height="118.955" fill="#8F69FF"/>
<ellipse cx="122.234" cy="11.3158" rx="2.16343" ry="2.16281" fill="#E84118"/>
<path opacity="0.1" d="M167.558 135.677H16.947V16.7229L167.558 135.677V135.677Z" fill="black"/>
<ellipse cx="49.952" cy="106.506" rx="20.2757" ry="20.2699" fill="#E6E6E6"/>
<rect x="171.451" y="80.876" width="19.7036" height="4.11598" fill="#3F3D56"/>
<rect x="147.63" y="48.8301" width="67.3452" height="1.76399" fill="#3F3D56"/>
<rect x="147.63" y="54.416" width="67.3452" height="1.76399" fill="#3F3D56"/>
<rect x="147.63" y="60.002" width="67.3452" height="1.76399" fill="#3F3D56"/>
<rect x="147.63" y="65.588" width="67.3452" height="1.76399" fill="#3F3D56"/>
<rect x="147.63" y="71.174" width="67.3452" height="1.76399" fill="#3F3D56"/>
<rect x="206.741" y="19.1361" width="8.23435" height="8.23197" fill="#F2F2F2"/>
<path fill-rule="evenodd" clip-rule="evenodd" d="M208.8 31.1901H218.798V21.1941H208.8V31.1901ZM218.364 30.7555H209.234V21.6287H218.364V30.7555Z" fill="#3F3D56"/>
<path d="M241.737 133.514H221.151V132.032C221.151 131.954 221.12 131.879 221.065 131.824C221.01 131.769 220.935 131.738 220.857 131.738H213.799C213.721 131.738 213.646 131.769 213.591 131.824C213.536 131.879 213.505 131.954 213.505 132.032V133.514H209.094V132.032C209.094 131.954 209.063 131.879 209.008 131.824C208.952 131.769 208.878 131.738 208.8 131.738H201.742C201.664 131.738 201.589 131.769 201.534 131.824C201.478 131.879 201.447 131.954 201.447 132.032V133.514H197.036V132.032C197.036 131.954 197.005 131.879 196.95 131.824C196.895 131.769 196.82 131.738 196.742 131.738H189.684C189.606 131.738 189.531 131.769 189.476 131.824C189.421 131.879 189.39 131.954 189.39 132.032V133.514H184.979V132.032C184.979 131.954 184.948 131.879 184.893 131.824C184.837 131.769 184.763 131.738 184.685 131.738H177.627C177.549 131.738 177.474 131.769 177.419 131.824C177.364 131.879 177.333 131.954 177.333 132.032V133.514H172.921V132.032C172.921 131.954 172.89 131.879 172.835 131.824C172.78 131.769 172.705 131.738 172.627 131.738H165.569C165.491 131.738 165.416 131.769 165.361 131.824C165.306 131.879 165.275 131.954 165.275 132.032V133.514H160.864V132.032C160.864 131.954 160.833 131.879 160.778 131.824C160.723 131.769 160.648 131.738 160.57 131.738H153.512C153.434 131.738 153.359 131.769 153.304 131.824C153.249 131.879 153.218 131.954 153.218 132.032V133.514H148.806V132.032C148.806 131.954 148.775 131.879 148.72 131.824C148.665 131.769 148.59 131.738 148.512 131.738H93.2246C93.1466 131.738 93.0718 131.769 93.0166 131.824C92.9615 131.879 92.9305 131.954 92.9305 132.032V133.514H88.5193V132.032C88.5193 131.954 88.4883 131.879 88.4331 131.824C88.378 131.769 88.3032 131.738 88.2252 131.738H81.1672C81.0892 131.738 81.0144 131.769 80.9592 131.824C80.9041 131.879 80.8731 131.954 80.8731 132.032V133.514H76.4618V132.032C76.4618 131.954 76.4308 131.879 76.3757 131.824C76.3205 131.769 76.2457 131.738 76.1677 131.738H69.1097C69.0317 131.738 68.9569 131.769 68.9018 131.824C68.8466 131.879 68.8156 131.954 68.8156 132.032V133.514H64.4044V132.032C64.4044 131.954 64.3734 131.879 64.3182 131.824C64.2631 131.769 64.1883 131.738 64.1103 131.738H57.0523C56.9743 131.738 56.8995 131.769 56.8443 131.824C56.7892 131.879 56.7582 131.954 56.7582 132.032V133.514H52.3469V132.032C52.3469 131.954 52.316 131.879 52.2608 131.824C52.2057 131.769 52.1309 131.738 52.0529 131.738H44.9948C44.9168 131.738 44.842 131.769 44.7869 131.824C44.7317 131.879 44.7007 131.954 44.7008 132.032V133.514H40.2895V132.032C40.2895 131.954 40.2585 131.879 40.2034 131.824C40.1482 131.769 40.0734 131.738 39.9954 131.738H32.9374C32.8594 131.738 32.7846 131.769 32.7294 131.824C32.6743 131.879 32.6433 131.954 32.6433 132.032V133.514H28.2321V132.032C28.2321 131.954 28.2011 131.879 28.1459 131.824C28.0908 131.769 28.016 131.738 27.938 131.738H20.88C20.802 131.738 20.7272 131.769 20.672 131.824C20.6169 131.879 20.5859 131.954 20.5859 132.032V133.514H7.05801C3.15998 133.514 3.71366e-06 136.674 0 140.57V143.761C1.1141e-05 147.658 3.15999 150.817 7.05801 150.817H241.737C245.635 150.817 248.795 147.658 248.795 143.761V140.57C248.795 136.674 245.635 133.514 241.737 133.514Z" fill="#3F3D56"/>
<path fill-rule="evenodd" clip-rule="evenodd" d="M29.3079 93.6218C29.3079 107.73 40.7478 119.166 54.8598 119.166C68.9651 119.15 80.3957 107.723 80.4117 93.6218C80.4117 79.5139 68.9717 68.0773 54.8598 68.0773C40.7478 68.0773 29.3079 79.5139 29.3079 93.6218ZM29.9803 93.6218C29.9803 79.8852 41.1192 68.7495 54.8598 68.7495C68.5939 68.765 79.7237 79.8916 79.7393 93.6218C79.7393 107.358 68.6003 118.494 54.8598 118.494C41.1192 118.494 29.9803 107.358 29.9803 93.6218Z" fill="#3F3D56"/>
<rect x="197.076" y="10.9382" width="85.7332" height="0.672225" fill="#3F3D56"/>
<rect x="136.559" y="188.405" width="246.441" height="0.672225" fill="#3F3D56"/>
<rect x="64.7781" y="219.328" width="85.7332" height="0.672225" fill="#3F3D56"/>
<rect x="158.355" y="184.862" width="9.41386" height="9.41114" fill="#8F69FF"/>
<path fill-rule="evenodd" clip-rule="evenodd" d="M162.053 188.895H173.484V177.467H162.053V188.895ZM172.987 188.398H162.55V177.964H172.987V188.398Z" fill="#3F3D56"/>
<rect x="267.623" y="7.39441" width="9.41386" height="9.41114" fill="#8F69FF"/>
<path fill-rule="evenodd" clip-rule="evenodd" d="M271.321 11.4278H282.752V0H271.321V11.4278ZM282.255 10.931H271.818V0.496861H282.255V10.931Z" fill="#3F3D56"/>
<rect x="362.434" y="184.862" width="9.41386" height="9.41114" fill="#8F69FF"/>
<path fill-rule="evenodd" clip-rule="evenodd" d="M366.132 188.895H377.563V177.467H366.132V188.895ZM377.066 188.398H366.629V177.964H377.066V188.398Z" fill="#3F3D56"/>
<path d="M355.431 77.964H354.631V56.0624C354.631 52.7005 353.295 49.4763 350.918 47.0991C348.54 44.7218 345.314 43.3863 341.952 43.3864H295.537C292.174 43.3863 288.949 44.7218 286.571 47.0991C284.193 49.4763 282.857 52.7005 282.857 56.0624V176.216C282.857 179.578 284.193 182.802 286.571 185.18C288.949 187.557 292.174 188.892 295.537 188.892H341.952C345.314 188.892 348.54 187.557 350.918 185.18C353.295 182.802 354.631 179.578 354.631 176.216V93.5539H355.431L355.431 77.964Z" fill="#3F3D56"/>
<path d="M351.931 56.8075V176.786C351.932 182.014 347.693 186.253 342.463 186.254H295.824C290.595 186.253 286.356 182.014 286.357 176.786V56.8075C286.357 51.5803 290.596 47.3431 295.824 47.3425H301.483C300.917 48.7292 301.079 50.3063 301.915 51.5491C302.751 52.7918 304.15 53.5372 305.648 53.5371H332.239C333.737 53.5372 335.137 52.7918 335.973 51.5491C336.808 50.3063 336.97 48.7292 336.405 47.3425H342.463C347.692 47.3431 351.93 51.5803 351.931 56.8075Z" fill="#8F69FF"/>
<rect x="312.197" y="126.451" width="13.8934" height="4.11598" fill="#3F3D56"/>
<rect x="295.401" y="94.4055" width="47.4863" height="1.76399" fill="#3F3D56"/>
<rect x="295.401" y="99.9915" width="47.4863" height="1.76399" fill="#3F3D56"/>
<rect x="295.401" y="105.577" width="47.4863" height="1.76399" fill="#3F3D56"/>
<rect x="295.401" y="111.163" width="47.4863" height="1.76399" fill="#3F3D56"/>
<rect x="295.401" y="116.749" width="47.4863" height="1.76399" fill="#3F3D56"/>
<rect x="312.568" y="70.9797" width="8.23435" height="8.23197" fill="#F2F2F2"/>
<path fill-rule="evenodd" clip-rule="evenodd" d="M315.721 83.0343V73.0383H325.72V83.0343H315.721ZM316.154 82.6007H325.286V73.4719H316.154V82.6007Z" fill="#3F3D56"/>
<path opacity="0.1" d="M351.931 163.973V176.786C351.932 182.014 347.693 186.253 342.463 186.254H295.824C290.595 186.253 286.356 182.014 286.357 176.786V112.182L325.649 143.215L326.322 143.746L333.631 149.517L334.314 150.058L351.931 163.973Z" fill="black"/>
<ellipse cx="315.109" cy="167.621" rx="14.7488" ry="14.7445" fill="#E6E6E6"/>
<path fill-rule="evenodd" clip-rule="evenodd" d="M78.3945 190.758C78.3945 206.908 91.4903 220 107.645 220C123.792 219.982 136.877 206.9 136.895 190.758C136.895 174.608 123.799 161.516 107.645 161.516C91.4903 161.516 78.3945 174.608 78.3945 190.758ZM79.067 190.758C79.067 174.98 91.8617 162.189 107.645 162.189C123.42 162.207 136.205 174.987 136.223 190.758C136.223 206.537 123.428 219.328 107.645 219.328C91.8617 219.328 79.067 206.537 79.067 190.758Z" fill="#3F3D56"/>
<path fill-rule="evenodd" clip-rule="evenodd" d="M300.965 160.508C300.965 170.718 309.244 178.994 319.457 178.994C329.664 178.983 337.937 170.713 337.948 160.508C337.948 150.299 329.669 142.022 319.457 142.022C309.244 142.022 300.965 150.299 300.965 160.508ZM301.638 160.508C301.638 150.67 309.615 142.694 319.457 142.694C329.293 142.705 337.265 150.674 337.276 160.508C337.276 170.347 329.298 178.322 319.457 178.322C309.615 178.322 301.638 170.347 301.638 160.508Z" fill="#3F3D56"/>
</svg>
