<svg width="224" height="220" viewBox="0 0 224 220" fill="none" xmlns="http://www.w3.org/2000/svg">
<ellipse cx="146.095" cy="126.376" rx="77.9045" ry="78.0104" fill="#E6E6E6"/>
<path fill-rule="evenodd" clip-rule="evenodd" d="M43.4509 140.808C43.4509 184.544 78.8583 220 122.536 220C166.193 219.951 201.572 184.524 201.621 140.807C201.621 97.0706 166.213 61.6152 122.536 61.6152C78.8584 61.6153 43.451 97.0709 43.4509 140.808ZM51.6519 111.407C63.5272 82.6981 91.5036 63.9794 122.536 63.9792C164.889 64.027 199.212 98.396 199.26 140.807C199.26 171.881 180.567 199.896 151.897 211.788C123.227 223.679 90.227 217.106 68.2839 195.134C46.3409 173.161 39.7766 140.116 51.6519 111.407Z" fill="#3F3D56"/>
<path d="M72.8651 0L0 126.377H145.73L72.8651 0L0 126.377H145.73L72.8651 0V0Z" fill="#8F69FF"/>
</svg>
