<svg width="427" height="220" viewBox="0 0 427 220" fill="none" xmlns="http://www.w3.org/2000/svg">
<rect x="127.101" y="122.716" width="142.772" height="97.2842" fill="#8F69FF"/>
<path fill-rule="evenodd" clip-rule="evenodd" d="M137.34 111.337H277.835C278.778 111.338 279.541 112.102 279.543 113.044V208.052C279.543 208.505 279.363 208.939 279.043 209.259C278.723 209.58 278.288 209.759 277.835 209.759H137.34C136.887 209.759 136.453 209.58 136.133 209.259C135.812 208.939 135.633 208.505 135.633 208.052V113.044C135.634 112.102 136.398 111.338 137.34 111.337ZM278.238 208.455C278.345 208.348 278.405 208.203 278.405 208.052V113.044C278.404 112.73 278.15 112.476 277.835 112.475H137.34C137.026 112.476 136.771 112.73 136.771 113.044V208.052C136.77 208.203 136.83 208.348 136.937 208.455C137.044 208.562 137.189 208.622 137.34 208.621H277.835C277.987 208.622 278.132 208.562 278.238 208.455Z" fill="#3F3D56"/>
<rect x="143.028" y="178.469" width="64.2758" height="7.39581" rx="0.830885" fill="#3F3D56"/>
<path fill-rule="evenodd" clip-rule="evenodd" d="M245.416 172.212H265.889C266.342 172.212 266.776 172.392 267.097 172.712C267.417 173.032 267.597 173.466 267.597 173.919V189.847C267.597 190.3 267.417 190.734 267.097 191.055C266.776 191.375 266.342 191.555 265.889 191.555H245.416C244.963 191.555 244.529 191.375 244.209 191.055C243.888 190.734 243.708 190.3 243.708 189.847V173.919C243.708 173.466 243.888 173.032 244.209 172.712C244.529 172.392 244.963 172.212 245.416 172.212ZM265.889 190.416C266.204 190.416 266.458 190.161 266.458 189.847V173.919C266.459 173.768 266.399 173.623 266.292 173.516C266.186 173.409 266.04 173.35 265.889 173.35H245.416C245.265 173.35 245.12 173.409 245.013 173.516C244.906 173.623 244.846 173.768 244.847 173.919V189.847C244.847 190.161 245.102 190.416 245.416 190.416H265.889Z" fill="#3F3D56"/>
<rect x="248.674" y="175.887" width="13.9578" height="2.8883" rx="0.830885" fill="#3F3D56"/>
<rect x="248.674" y="180.438" width="13.9578" height="2.8883" rx="0.830885" fill="#3F3D56"/>
<rect x="248.674" y="184.99" width="13.9578" height="2.8883" rx="0.830885" fill="#3F3D56"/>
<rect x="144.734" y="118.165" width="29.5783" height="12.516" rx="0.830885" fill="#3F3D56"/>
<path d="M161.798 124.423C161.798 126.622 160.78 128.405 159.523 128.405C158.266 128.405 157.248 126.622 157.248 124.423C157.248 122.223 159.523 120.44 159.523 120.44C159.523 120.44 161.798 122.223 161.798 124.423Z" fill="#8F69FF"/>
<path d="M374.663 67.2339H373.832V160.133H279.542V160.964H374.663V67.2339V67.2339Z" fill="#3F3D56"/>
<path d="M127.101 160.964H31.9805V67.2339H32.8112V160.133H127.101V160.964V160.964Z" fill="#3F3D56"/>
<path d="M426.734 15.7077H426.201V14.7759H426.601C426.748 14.7759 426.867 14.6567 426.867 14.5097V9.7175C426.867 9.57046 426.748 9.45127 426.601 9.45126H426.201V6.7297C426.201 5.192 425.591 3.71727 424.504 2.62996C423.416 1.54264 421.942 0.931802 420.405 0.931817H419.813V0.266232C419.813 0.119197 419.694 2.29436e-06 419.547 0H414.755C414.608 2.29436e-06 414.489 0.119197 414.489 0.266232V0.931817H327.919C326.382 0.931802 324.907 1.54264 323.82 2.62996C322.733 3.71727 322.122 5.192 322.122 6.7297V130.114C322.122 131.651 322.733 133.126 323.82 134.214C324.907 135.301 326.382 135.912 327.919 135.912H420.405C421.942 135.912 423.416 135.301 424.504 134.214C425.591 133.126 426.202 131.651 426.201 130.114V21.0324H426.734C426.881 21.0324 427 20.9132 427 20.7661V15.974C427 15.9033 426.972 15.8356 426.922 15.7857C426.872 15.7358 426.804 15.7077 426.734 15.7077Z" fill="#3F3D56"/>
<rect x="326.913" y="4.72437" width="95.2962" height="126.463" rx="0.791335" fill="#E6E6E6"/>
<rect x="363.618" y="66.7026" width="16.3476" height="4.84529" rx="0.830885" fill="#3F3D56"/>
<rect x="343.854" y="28.9788" width="55.8747" height="2.07655" rx="0.830885" fill="#3F3D56"/>
<rect x="343.854" y="35.5544" width="55.8747" height="2.07655" rx="0.830885" fill="#3F3D56"/>
<rect x="343.854" y="42.1301" width="55.8747" height="2.07655" rx="0.830885" fill="#3F3D56"/>
<rect x="343.854" y="48.7061" width="55.8747" height="2.07655" rx="0.830885" fill="#3F3D56"/>
<rect x="343.854" y="55.2817" width="55.8747" height="2.07655" rx="0.830885" fill="#3F3D56"/>
<ellipse cx="369.814" cy="108.837" rx="17.3541" ry="17.3571" fill="#8F69FF"/>
<path fill-rule="evenodd" clip-rule="evenodd" d="M354.827 108.791C358.195 116.923 366.128 122.225 374.929 122.225C386.94 122.211 396.673 112.476 396.687 100.463C396.687 91.6615 391.385 83.7264 383.255 80.3581C375.125 76.9898 365.766 78.8516 359.543 85.0754C353.321 91.2992 351.459 100.659 354.827 108.791ZM353.962 100.463C353.962 88.8816 363.349 79.4929 374.929 79.4929C386.503 79.5059 395.882 88.887 395.895 100.463C395.895 112.045 386.508 121.434 374.929 121.434C363.349 121.434 353.962 112.045 353.962 100.463Z" fill="#3F3D56"/>
<path d="M64.5872 36.5222H63.8755V17.022C63.8755 14.0287 62.6866 11.1581 60.5704 9.04148C58.4541 6.92491 55.5839 5.73583 52.5911 5.73584H11.2843C8.29152 5.73583 5.42131 6.92491 3.30509 9.04148C1.18888 11.1581 -3.30493e-06 14.0287 0 17.022V124.002C-3.30494e-06 126.995 1.18888 129.866 3.3051 131.982C5.42132 134.099 8.29153 135.288 11.2843 135.288H52.5912C55.5839 135.288 58.4542 134.099 60.5704 131.982C62.6866 129.866 63.8755 126.995 63.8755 124.002V50.4028H64.5872V36.5222Z" fill="#3F3D56"/>
<path d="M61.4725 17.6854V124.509C61.4733 129.164 57.7009 132.938 53.0467 132.939H11.5405C6.88626 132.938 3.11394 129.164 3.11475 124.509V17.6854C3.11524 13.0315 6.88728 9.25879 11.5405 9.2583H16.5762C16.0729 10.4929 16.2172 11.8971 16.9609 13.0036C17.7046 14.1101 18.9503 14.7737 20.2834 14.7736H43.9478C45.2809 14.7737 46.5265 14.1101 47.2703 13.0036C48.014 11.8971 48.1583 10.4929 47.655 9.2583H53.0467C57.6999 9.25881 61.472 13.0315 61.4725 17.6854V17.6854Z" fill="#E6E6E6"/>
<rect x="26.7341" y="72.1926" width="11.1189" height="3.29553" rx="0.830885" fill="#3F3D56"/>
<rect x="13.292" y="46.5347" width="38.0033" height="1.41237" rx="0.706186" fill="#3F3D56"/>
<rect x="13.292" y="51.0071" width="38.0033" height="1.41237" rx="0.706186" fill="#3F3D56"/>
<rect x="13.292" y="55.4797" width="38.0033" height="1.41237" rx="0.706186" fill="#3F3D56"/>
<rect x="13.292" y="59.9521" width="38.0033" height="1.41237" rx="0.706186" fill="#3F3D56"/>
<rect x="13.292" y="64.4248" width="38.0033" height="1.41237" rx="0.706186" fill="#3F3D56"/>
<ellipse cx="29.0242" cy="106.501" rx="11.9681" ry="11.9701" fill="#8F69FF"/>
<path fill-rule="evenodd" clip-rule="evenodd" d="M18.6888 106.469C21.0113 112.077 26.4828 115.734 32.5518 115.734C40.835 115.724 47.5476 109.011 47.557 100.726C47.557 94.6559 43.9011 89.1835 38.294 86.8606C32.6869 84.5377 26.2329 85.8217 21.9415 90.1139C17.65 94.4061 16.3663 100.861 18.6888 106.469ZM18.0922 100.726C18.0922 92.7388 24.566 86.264 32.5518 86.264C40.5339 86.2729 47.0024 92.7425 47.0113 100.726C47.0113 108.713 40.5376 115.188 32.5518 115.188C24.566 115.188 18.0922 108.713 18.0922 100.726Z" fill="#3F3D56"/>
<rect x="61.2693" y="155.87" width="11.6304" height="11.6324" fill="#D0CDE1"/>
<path fill-rule="evenodd" clip-rule="evenodd" d="M65.8384 160.855H79.9611V146.73H65.8384V160.855ZM79.347 160.241H66.4524V147.344H79.347V160.241Z" fill="#3F3D56"/>
<rect x="321.708" y="155.87" width="11.6304" height="11.6324" fill="#D0CDE1"/>
<path fill-rule="evenodd" clip-rule="evenodd" d="M326.277 160.855H340.4V146.73H326.277V160.855ZM339.786 160.241H326.891V147.344H339.786V160.241Z" fill="#3F3D56"/>
</svg>
