<svg width="431" height="220" viewBox="0 0 431 220" fill="none" xmlns="http://www.w3.org/2000/svg">
<path d="M411.869 121.628L410.519 132.364L407.168 159.03H339.853C340.378 153.053 341.097 144.451 341.865 135.164C341.94 134.237 342.02 133.303 342.095 132.364C344.02 109.02 346.127 82.6029 346.127 82.6029L354.977 84.2493L372.147 87.4376L379.144 88.7361L397.88 92.2201C407.221 93.9534 413.647 107.46 411.869 121.628L411.869 121.628Z" fill="#F2F2F2"/>
<path d="M360.951 39.4041L369.229 53.8701L353.319 65.1302L346.531 47.3487L360.951 39.4041V39.4041Z" fill="#FFB6B6"/>
<ellipse cx="350.412" cy="32.6104" rx="20.5076" ry="20.4793" fill="#FFB6B6"/>
<path d="M348.94 37.1887C347.312 34.7138 347.951 33.4194 346.587 32.5099C346.587 32.5098 346.039 32.1439 342.113 31.9352V31.9352C341.234 25.6173 340.136 24.8512 340.136 24.8511C338.872 23.9681 336.995 24.255 335.827 24.7951C333.358 25.9373 333.644 28.4047 331.981 28.8768C329.684 29.5291 325.505 25.8521 325.094 21.6428C324.758 18.2092 326.973 14.8743 327.852 15.0507C328.723 15.2256 330.809 12.5665 331.935 12.6075C332.704 12.6355 335.846 11.2716 336.692 11.3782C337.615 11.4947 340.659 13.081 340.786 12.7185C341.667 10.2001 341.408 9.50132 342.156 8.78085C343.481 7.50417 345.649 8.39322 349.051 8.87051C356.049 9.85254 357.27 7.54825 360.856 9.11011C362.668 9.89909 364.184 12.0269 367.142 16.2502C371.278 22.1565 373.347 25.1097 373.36 28.5541C373.374 32.0669 371.67 31.8439 370.922 37.0441C370.089 42.8329 371.859 45.4799 369.926 47.3605C368.431 48.814 365.394 49.1591 363.799 47.8834C361.067 45.6993 364.642 40.4292 361.619 36.5789C359.763 34.2153 356.031 33.1637 354.321 34.332C352.388 35.653 353.453 39.5304 352.094 39.8981C350.93 40.213 349.224 37.6199 348.94 37.1887L348.94 37.1887Z" fill="#2F2E41"/>
<path d="M396.711 117.847C396.139 127.614 393.867 130.698 393.072 142.232C392.898 144.765 392.793 147.704 392.793 151.21C392.793 152.103 392.798 152.967 392.798 153.812C392.798 155.609 392.764 157.307 392.554 159.03C392.396 160.405 392.122 161.791 391.67 163.251H347.501C347.496 163.241 347.496 163.231 347.491 163.221C347.233 162.099 347.068 161.026 346.944 159.998C346.904 159.671 346.869 159.348 346.84 159.03C346.8 158.658 346.765 158.29 346.731 157.928C346.596 156.483 346.462 155.117 346.143 153.812C345.716 152.009 344.94 150.311 343.349 148.672C342.698 148.002 342.047 147.481 341.41 147.024C341.286 146.939 341.166 146.855 341.042 146.771C339.282 145.564 337.616 144.695 336.174 142.232C336.149 142.197 336.13 142.158 336.11 142.123C335.861 141.691 335.215 140.559 334.747 139.049C334.255 137.48 333.957 135.509 334.494 133.493C335.772 128.717 340.505 128.24 344.374 123.413C344.791 122.892 345.204 122.316 345.597 121.676C347.347 118.835 347.819 116.333 348.376 113.358C348.465 112.877 348.545 112.4 348.61 111.938C348.66 111.591 348.704 111.248 348.739 110.91C349.047 108.075 348.898 105.632 348.535 103.448C347.352 96.2924 343.861 91.8633 346.328 85.443C347.103 83.4273 348.202 81.9127 349.311 80.6168C351.658 77.8708 354.069 76.0883 353.652 72.5432C353.229 68.968 350.514 68.4763 350.211 65.3531C350.057 63.7742 350.574 62.1108 351.544 60.4772V60.4723C354.646 55.2138 362.393 50.3726 367.315 50.5265C368.225 50.5515 369.031 50.7549 369.702 51.1472C372.134 52.5772 371.119 55.7004 374.844 60.08C377.613 63.3323 380.745 64.6333 381.934 65.2488C386.643 67.7019 390.471 74.9364 393.072 84.1869C393.091 84.2565 393.111 84.3258 393.131 84.4005C394.738 90.195 395.871 96.7742 396.433 103.448C396.672 106.273 396.811 109.113 396.841 111.923C396.866 114.168 396.816 116.114 396.711 117.847L396.711 117.847Z" fill="#8F69FF"/>
<path d="M363.636 151.309L362.736 153.812L362.169 155.38L360.856 159.03L359.335 163.251H349.555L351.195 159.03L351.956 157.064L353.219 153.812L355.337 148.35L363.636 151.309V151.309Z" fill="#FFB6B6"/>
<path d="M393.226 83.3327C393.201 83.6556 393.166 84.013 393.131 84.4004C392.744 88.3429 391.828 95.3987 390.491 103.448C389.785 107.693 388.96 112.217 388.03 116.71C386.031 126.407 383.545 135.956 380.736 142.232C380.233 143.364 379.716 144.387 379.189 145.291C378.786 145.981 378.364 146.661 377.921 147.332C376.489 149.531 374.883 151.617 373.217 153.563C373.153 153.648 373.078 153.727 373.004 153.812C372.735 154.129 372.457 154.442 372.178 154.755C370.816 156.289 369.424 157.719 368.076 159.03C366.435 160.629 364.854 162.044 363.437 163.251H347.555L347.491 163.221L345.204 162.208C345.204 162.208 345.855 161.443 346.944 159.998C347.168 159.705 347.406 159.383 347.665 159.03C347.983 158.598 348.327 158.121 348.694 157.605C349.46 156.523 350.33 155.251 351.265 153.812C353.075 151.026 355.138 147.6 357.222 143.632C357.461 143.171 357.704 142.704 357.948 142.232C357.953 142.217 357.963 142.202 357.968 142.187C358.38 141.383 358.788 140.554 359.196 139.71C362.651 132.53 363.641 126.571 363.925 124.64C364.322 121.909 364.874 118.09 364.725 113.89C364.625 111.119 364.223 108.189 363.263 105.28V105.275C363.064 104.664 362.84 104.053 362.587 103.448C362.134 102.36 361.597 101.288 360.961 100.23C358.152 95.5725 355.869 95.3788 354.054 90.3041C353.517 88.7997 352.299 85.4034 352.672 81.8183V81.8135C352.717 81.3715 352.791 80.9247 352.891 80.4776V80.4727C352.916 80.3486 352.951 80.2196 352.986 80.0955C353.269 78.9981 353.736 77.9105 354.447 76.8777C355.834 74.8719 357.729 73.68 359.424 72.9701L359.43 72.965C361.388 72.1509 363.079 71.977 363.407 71.9472C370.672 71.3018 376.305 77.3992 379.383 80.7309C380.571 82.0169 381.661 83.0946 382.655 83.9732C390.397 90.8753 392.52 86.4659 393.072 84.1868C393.156 83.8343 393.201 83.5315 393.226 83.3327L393.226 83.3327Z" fill="#8F69FF"/>
<path d="M393.251 83.0747C393.251 83.0994 393.246 83.1838 393.226 83.323C393.236 83.2483 393.241 83.1739 393.246 83.1043C393.246 83.0895 393.246 83.0795 393.251 83.0747H393.251Z" fill="#E84118"/>
<path d="M353.761 187.849H87.2235C84.747 187.849 82.7285 189.86 82.7285 192.333C82.7285 194.811 84.747 196.821 87.2235 196.821H353.761C356.237 196.821 358.251 194.811 358.251 192.333C358.251 189.86 356.237 187.849 353.761 187.849Z" fill="#E6E6E6"/>
<path d="M294.611 211.028H146.368C143.892 211.028 141.878 213.038 141.878 215.511C141.878 217.984 143.892 220 146.368 220H294.611C297.087 220 299.106 217.984 299.106 215.511C299.106 213.038 297.087 211.028 294.611 211.028V211.028Z" fill="#E6E6E6"/>
<path d="M116.883 40.356L133.681 33.2964L140.886 48.0463L123.233 55.2413L116.883 40.356V40.356Z" fill="#FFB6B6"/>
<path opacity="0.1" d="M116.883 40.356L133.681 33.2964L140.886 48.0463L123.233 55.2413L116.883 40.356V40.356Z" fill="black"/>
<path d="M119.27 34.7354L135.842 53.8023C135.842 53.8023 124.314 90.1374 112.786 93.3752C101.258 96.613 80.0031 112.442 80.0031 112.442L53.3445 95.174L66.3135 76.1071C66.3135 76.1071 97.6554 33.2964 105.941 33.2964C114.227 33.2964 119.27 34.7354 119.27 34.7354V34.7354Z" fill="#8F69FF"/>
<path d="M96.8809 159.03H58.3052L55.8663 155.774L45.909 142.482L43.6178 139.424C43.6178 139.424 34.9717 123.594 36.773 109.204C38.5743 94.8142 57.3073 91.5764 57.3073 91.5764H58.0783L81.0119 111.701L79.6429 130.43L86.9056 142.482L96.8809 159.03V159.03Z" fill="#2F2E41"/>
<path d="M66.2054 159.03H55.8662V143.741L66.2054 159.03V159.03Z" fill="#2F2E41"/>
<path d="M289.208 135.819L287.922 142.482L284.73 159.03H220.609C221.11 155.321 221.794 149.982 222.526 144.219C222.598 143.644 222.673 143.064 222.745 142.482C224.579 127.994 226.586 111.6 226.586 111.6L235.016 112.622L251.371 114.601L258.036 115.407L275.882 117.569C284.781 118.644 290.901 127.027 289.208 135.819H289.208Z" fill="#F2F2F2"/>
<path d="M379.952 159.03H345.173C345.703 158.408 346.002 158.048 346.002 158.048L356.428 156.328L377.909 152.788C377.909 152.788 378.889 155.318 379.952 159.03L379.952 159.03Z" fill="#2F2E41"/>
<path d="M232.43 47.5516L247.555 68.9117L221.173 69.6985L218.341 49.625L232.43 47.5516V47.5516Z" fill="#A0616A"/>
<path opacity="0.1" d="M232.43 47.5516L247.555 68.9117L221.173 69.6985L218.341 49.625L232.43 47.5516V47.5516Z" fill="black"/>
<path d="M157.842 91.8081C155.901 86.2175 151.44 82.6859 147.877 83.9198C144.315 85.1537 143.001 90.6853 144.943 96.2777C145.688 98.5222 146.96 100.556 148.654 102.209L157.176 125.792L168.173 121.563L158.604 98.7624C158.91 96.4168 158.649 94.0321 157.842 91.8081V91.8081Z" fill="#A0616A"/>
<path d="M260.222 80.9242L260.201 102.693L258.173 110.733L254.001 127.271L250.964 142.482L248.702 153.814L247.895 157.861C247.286 158.268 246.681 158.656 246.075 159.03H193.381C190.388 157.235 188.713 155.839 188.713 155.839C188.713 155.839 189.541 155.062 190.489 153.814C192.088 151.706 194.023 148.252 192.838 144.953C192.589 144.262 192.524 143.421 192.6 142.482C193.082 136.287 199.589 125.811 199.589 125.811L198.241 110.262L197.65 103.448L201.816 70.2249L215.394 62.3427L217.738 62.1163L240.877 60.8679L250.441 61.4183L250.877 61.5371L260.222 80.9242L260.222 80.9242Z" fill="#8F69FF"/>
<path d="M261.249 159.03H249.721L249.213 153.814L249.202 153.709L252.466 153.486L260.957 152.907L261.105 156.03L261.22 158.426L261.249 159.03V159.03Z" fill="#FFB6B6"/>
<path d="M264.087 86.1873L268.93 114.561L264.978 142.482L264.362 146.827L263.274 154.501L262.939 156.861L262.95 157.116L263.032 159.03H249.343L248.839 153.814L248.795 153.346L247.765 142.661L247.747 142.482L245.56 119.824L249.847 103.448L250.164 102.243V102.24L252.03 74.2003L250.585 61.4579L250.571 61.3391C250.599 61.3571 250.625 61.3751 250.653 61.3931C250.729 61.4399 250.805 61.4866 250.877 61.537C259.292 66.8686 264.307 76.2222 264.087 86.1873H264.087Z" fill="#8F69FF"/>
<path d="M206.72 75.6619L201.456 70.2245C201.456 70.2245 190.187 75.2979 189.625 78.1126C189.063 80.9273 169.166 122.268 169.166 122.268L160.509 99.1791L149.241 106.692C149.241 106.692 158.283 142.538 166.738 144.221C175.194 145.904 203.534 101.794 203.534 101.794L206.72 75.6619H206.72Z" fill="#8F69FF"/>
<path d="M420.474 142.232H10.5214C4.71879 142.232 0 146.949 0 152.744C0 158.538 4.71878 163.251 10.5214 163.251H420.474C426.276 163.251 431 158.539 431 152.744C431 146.949 426.276 142.232 420.474 142.232Z" fill="#E6E6E6"/>
<path d="M257.822 110.201L257.025 147.344C256.948 150.939 254.007 153.814 250.406 153.814H181.987C178.47 153.814 175.568 151.069 175.376 147.563L173.342 110.421C173.135 106.633 176.155 103.448 179.953 103.448H251.203C254.915 103.448 257.902 106.495 257.822 110.201V110.201Z" fill="#3F3D56"/>
<ellipse cx="147.37" cy="32.9749" rx="16.3696" ry="16.3469" fill="#FFB6B6"/>
<path d="M119.991 75.7473L121.792 95.174L134.041 144.46L123.459 148.164L105.581 94.4545L103.112 72.8693L119.991 75.7473V75.7473Z" fill="#FFB6B6"/>
<path d="M115.119 110.201L114.322 147.344C114.245 150.939 111.304 153.814 107.702 153.814H39.2829C35.7668 153.814 32.864 151.069 32.672 147.563L30.6387 110.421C30.4314 106.633 33.4511 103.448 37.2496 103.448H108.499C112.212 103.448 115.198 106.495 115.119 110.201V110.201Z" fill="#3F3D56"/>
<ellipse cx="135.991" cy="148.355" rx="12.9279" ry="5.71019" fill="#FFB6B6"/>
<path d="M94.5933 78.7174L101.978 39.4122C101.978 39.4122 122.513 36.5342 123.233 43.3695C123.954 50.2049 122.718 83.61 122.718 83.61L94.5933 78.7174V78.7174Z" fill="#8F69FF"/>
<path d="M140.762 35.5451C140.762 35.5451 150.888 31.9361 155.16 29.9943C159.431 28.0525 167.917 41.5966 168.106 34.4435C168.295 27.2904 165.363 24.2907 165.363 24.2907C165.363 24.2907 164.63 8.64223 148.843 10.5987C148.843 10.5987 152.316 2.76957 140.917 1.55895C129.518 0.348322 111.785 27.8362 113.373 31.9442C114.961 36.0521 116.865 39.4483 112.359 43.8405C107.853 48.2328 99.4162 73.0217 105.836 79.6922C112.255 86.3627 112.676 89.2573 108.278 93.4072C103.88 97.5571 93.4833 106.58 104.724 108.147C115.965 109.713 103.696 108.543 112.076 101.182C120.456 93.8213 132.685 94.1219 128.119 82.3117C123.553 70.5014 131.485 53.5774 130.493 51.0099C129.5 48.4425 132.717 32.139 132.717 32.139C132.717 32.139 140.202 31.0407 140.762 35.5451L140.762 35.5451Z" fill="#2F2E41"/>
<ellipse cx="224.344" cy="37.4881" rx="17.8195" ry="17.7948" fill="#A0616A"/>
<path d="M225.766 13.5641C225.25 13.8647 224.559 13.41 224.394 12.8371C224.229 12.2641 224.421 11.6559 224.612 11.091L225.574 8.24723C226.256 6.23038 226.979 4.14305 228.456 2.60796C230.685 0.290998 234.228 -0.298428 237.416 0.12859C241.511 0.676967 245.552 2.89135 247.456 6.55313C249.36 10.2149 248.549 15.3244 245.109 17.609C250.012 23.2215 251.722 29.4765 251.452 36.9201C251.182 44.3637 243.059 51.2142 237.762 56.4579C236.579 55.7418 235.503 52.3858 236.154 51.1667C236.805 49.9475 235.872 48.5351 236.678 47.4121C237.484 46.2892 238.158 48.0773 237.343 46.9607C236.829 46.2561 238.835 44.6351 238.071 44.2134C234.376 42.1737 233.147 37.5741 230.826 34.0519C228.027 29.8035 223.236 26.9264 218.166 26.4491C215.373 26.1862 212.423 26.6624 210.133 28.2816C207.844 29.9009 206.362 32.7945 206.893 35.5453C205.518 34.1513 204.834 32.1083 205.092 30.1687C205.35 28.2291 206.545 26.4355 208.237 25.4485C207.208 22.0514 208.089 18.1439 210.477 15.5151C212.864 12.8864 222.55 13.3341 226.035 14.026L225.766 13.5641H225.766Z" fill="#2F2E41"/>
<path d="M226.307 26.5522C230.924 27.0499 234.257 31.0435 237.072 34.7315C238.694 36.8572 240.394 39.2047 240.353 41.8771C240.312 44.5789 238.503 46.8964 237.638 49.4569C236.225 53.6422 237.602 58.6217 240.966 61.4895C237.642 62.1193 234.049 59.6306 233.475 56.301C232.807 52.425 235.75 48.6841 235.401 44.7665C235.094 41.3151 232.371 38.6589 230.055 36.0782C227.74 33.4976 225.565 30.0732 226.63 26.7756L226.307 26.5522L226.307 26.5522Z" fill="#2F2E41"/>
<path d="M295.326 144.481C290.753 147.079 288.388 151.54 290.044 154.446C291.7 157.352 296.748 157.602 301.322 155.003C303.164 153.99 304.735 152.551 305.906 150.807L325.142 139.557L319.663 130.655L301.281 142.69C299.181 142.804 297.139 143.418 295.326 144.481Z" fill="#FFB6B6"/>
<path d="M360.456 61.9882C359.881 61.7607 354.837 59.8532 350.232 62.3716C344.943 65.2646 344.126 71.8686 343.839 74.1849C343.177 79.5356 345.127 80.7349 345.539 86.1518C346.309 96.2863 348.34 84.7248 345.097 89.3508C343.974 90.952 332.508 115.766 326.185 120.626C313.887 130.079 306.077 136.736 306.077 136.736L314.993 146.407C314.993 146.407 329.081 142.658 341.533 134.584C354.306 126.302 360.692 122.161 365.633 114.06C366.059 113.362 376.239 96.0972 370.772 77.006C369.525 72.6514 367.24 64.6728 360.456 61.9882H360.456Z" fill="#8F69FF"/>
<path d="M406.493 110.201L405.696 147.344C405.619 150.939 402.678 153.814 399.076 153.814H330.657C327.141 153.814 324.238 151.069 324.046 147.563L322.013 110.421C321.805 106.633 324.825 103.448 328.624 103.448H399.873C403.586 103.448 406.572 106.495 406.493 110.201V110.201Z" fill="#3F3D56"/>
</svg>
