<?xml version="1.0" standalone="no"?>
<!DOCTYPE svg PUBLIC "-//W3C//DTD SVG 20010904//EN"
 "http://www.w3.org/TR/2001/REC-SVG-20010904/DTD/svg10.dtd">
<svg version="1.0" xmlns="http://www.w3.org/2000/svg"
 width="512.000000pt" height="512.000000pt" viewBox="0 0 512.000000 512.000000"
 preserveAspectRatio="xMidYMid meet">
<metadata>
Created by potrace 1.14, written by Peter Selinger 2001-2017
</metadata>
<g transform="translate(0.000000,512.000000) scale(0.100000,-0.100000)"
fill="#000000" stroke="none">
<path d="M696 4633 c-1 -1 -74 -3 -161 -4 -97 -1 -180 -7 -212 -15 -161 -42
-258 -141 -303 -309 -18 -67 -18 -118 -15 -1080 2 -555 4 -1249 5 -1542 2
-588 3 -604 66 -742 79 -172 258 -329 474 -414 249 -98 511 -67 736 88 88 60
951 915 989 980 63 105 79 233 44 338 -49 147 -151 242 -306 282 -31 8 -76 15
-99 15 -100 0 -243 -71 -316 -157 -18 -21 -144 -149 -280 -286 -251 -252 -300
-291 -355 -281 -47 9 -83 43 -118 109 -7 14 -10 354 -9 1070 l2 1050 36 31
c21 18 51 35 69 38 87 16 1572 27 1867 14 182 -9 271 -32 301 -81 23 -37 21
-84 -7 -142 -21 -45 -177 -201 -761 -762 -46 -43 -83 -82 -83 -85 0 -4 107
-112 237 -240 395 -388 1662 -1656 1768 -1769 176 -187 294 -258 428 -260 236
-3 405 148 423 379 7 76 -8 148 -44 222 -29 59 -19 49 -547 565 -169 165 -349
341 -400 390 -50 50 -228 223 -394 385 -165 162 -300 298 -299 302 2 4 127
133 279 285 325 328 376 392 435 550 62 163 65 298 13 493 -73 272 -271 461
-584 557 l-90 28 -1393 0 c-767 0 -1395 -1 -1396 -2z"/>
</g>
</svg>
