<svg width="64" height="64" viewBox="0 0 64 64" fill="none" xmlns="http://www.w3.org/2000/svg">
<g id="Group 3 Copy">
<path id="Mask" d="M63.5 32.0013V32.0016C63.5078 42.3074 58.468 51.9635 50.0094 57.8491L50.0082 57.8499C48.8347 58.6713 47.6057 59.4106 46.3301 60.0625L46.3294 60.0628C45.9061 60.28 45.4807 60.4859 45.0479 60.6807L45.0449 60.6821C44.6553 60.8606 44.2629 61.0285 43.8643 61.1885L43.8629 61.1891C38.9123 63.1938 33.5346 63.9113 28.2318 63.2746L28.2309 63.2745C27.3137 63.1659 26.4085 63.0167 25.5152 62.8268C25.5038 62.8244 25.4923 62.822 25.4811 62.8196C25.4716 62.8176 25.4622 62.8157 25.4533 62.8138L25.3977 62.8022L25.3962 62.8019C23.5243 62.4059 21.6934 61.8362 19.9274 61.1L19.9267 61.0997C5.33132 55.0401 -2.51528 39.1017 1.58207 23.8369C5.67942 8.57202 20.4521 -1.29315 36.1194 0.772714C51.7868 2.83858 63.4983 16.1959 63.5 32.0013Z" fill="#F9F9F9" stroke="#B2BEC3"/>
<mask id="mask0_0_2712" style="mask-type:luminance" maskUnits="userSpaceOnUse" x="0" y="0" width="64" height="64">
<path id="Mask_2" d="M63.5 32.0013V32.0016C63.5078 42.3074 58.468 51.9635 50.0094 57.8491L50.0082 57.8499C48.8347 58.6713 47.6057 59.4106 46.3301 60.0625L46.3294 60.0628C45.9061 60.28 45.4807 60.4859 45.0479 60.6807L45.0449 60.6821C44.6553 60.8606 44.2629 61.0285 43.8643 61.1885L43.8629 61.1891C38.9123 63.1938 33.5346 63.9113 28.2318 63.2746L28.2309 63.2745C27.3137 63.1659 26.4085 63.0167 25.5152 62.8268C25.5038 62.8244 25.4923 62.822 25.4811 62.8196C25.4716 62.8176 25.4622 62.8157 25.4533 62.8138L25.3977 62.8022L25.3962 62.8019C23.5243 62.4059 21.6934 61.8362 19.9274 61.1L19.9267 61.0997C5.33132 55.0401 -2.51528 39.1017 1.58207 23.8369C5.67942 8.57202 20.4521 -1.29315 36.1194 0.772714C51.7868 2.83858 63.4983 16.1959 63.5 32.0013Z" fill="white" stroke="white"/>
</mask>
<g mask="url(#mask0_0_2712)">
<g id="Group 3">
<circle id="Oval" cx="31.3576" cy="22.6259" r="11.0519" fill="#FFB8B8"/>
<path id="Path" d="M26.7864 69.3392C25.3314 69.1642 23.8935 68.9296 22.4771 68.6266L23.821 38.3845L24.0131 38.184L26.765 35.2784H35.516L38.7458 38.4058L39.0189 38.6746L45.9266 45.2922L49.0456 66.9328C45.8138 68.0661 42.4716 68.8555 39.0743 69.288C36.9661 69.5591 34.8426 69.6945 32.7171 69.6933C31.6462 69.6933 30.5795 69.6592 29.5256 69.5909C28.6039 69.5312 27.691 69.4501 26.7864 69.3392Z" fill="#CBCBCB"/>
<path id="Combined Shape" fill-rule="evenodd" clip-rule="evenodd" d="M8.77691 63.528C9.61024 63.992 10.4598 64.4298 11.3256 64.8413C11.3833 64.8687 11.4411 64.896 11.499 64.9232C12.2329 65.2773 12.9796 65.6059 13.7347 65.9216C16.511 67.0788 19.3893 67.9744 22.3322 68.5968C22.3556 68.6011 22.3801 68.6064 22.4046 68.6117C22.4292 68.6171 22.4537 68.6224 22.4772 68.6267C23.8936 68.9296 25.3315 69.1643 26.7865 69.3392C27.6911 69.4501 28.604 69.5312 29.5257 69.5909C28.5392 61.8378 26.9399 54.1751 24.7428 46.6747L24.0132 38.184L24.0002 38.0389L21.5213 42.0667L9.70691 49.2432C9.69379 49.2481 9.68099 49.2538 9.66858 49.2603C9.12254 49.4693 3.12358 51.8245 3.56295 53.5824C3.64837 53.9195 3.57587 56.3387 3.41357 60.0891C5.12509 61.3502 6.91663 62.4989 8.77691 63.528ZM39.0744 69.288C42.4717 68.8555 45.8139 68.0661 49.0457 66.9328C50.283 66.5061 51.499 66.024 52.6894 65.495C52.8253 65.4387 52.961 65.3772 53.0949 65.3166L53.0952 65.3164L53.0953 65.3164L53.0954 65.3163L53.21 65.2646C53.8925 64.9574 54.5625 64.6331 55.228 64.2918C56.326 63.7286 57.3998 63.127 58.4494 62.487C58.4494 62.487 58.4494 62.4869 58.4494 62.4869C59.1946 62.0347 59.9257 61.5611 60.6425 61.0661C59.3796 54.3547 58.5263 49.6613 58.5773 49.1664C58.5946 48.922 58.5167 48.6805 58.3598 48.4923L58.3598 48.0528L57.4341 47.7115C57.4341 47.7115 57.434 47.7115 57.434 47.7115C55.8467 46.743 53.0819 46.0091 52.1817 45.7872H52.1773C52.1773 45.7872 52.1772 45.7872 52.1772 45.7872L44.5444 42.9883L38.7458 38.4059L38.2767 38.0389C37.914 38.0389 38.023 39.3045 38.2325 41.737C38.5554 45.4871 39.1172 52.0106 38.5581 60.9467C38.4305 63.7376 38.6036 66.5341 39.0744 69.288Z" fill="url(#paint0_linear_0_2712)"/>
<path id="Path_2" d="M20.9018 26.0836C20.9018 26.0836 21.8409 24.4346 21.6226 18.9257C21.4043 13.4168 29.793 16.5325 36.8027 16.007C43.8124 15.4815 42.3286 25.2043 42.3286 25.2043C42.3286 25.2043 42.8343 24.6263 43.917 19.9338C44.9997 15.2413 42.5414 10.565 42.5414 10.565C41.8173 5.63409 37.9154 7.21446 37.9154 7.21446C39.7945 7.94599 39.4336 9.51016 39.4336 9.51016C37.843 6.72138 33.9411 8.30175 33.9411 8.30175C28.737 5.03607 23.4627 9.33656 23.4627 9.33656C17.1759 10.7634 20.8629 15.763 20.8629 15.763C14.5405 18.9581 20.9018 26.0836 20.9018 26.0836Z" fill="black"/>
</g>
</g>
</g>
<defs>
<linearGradient id="paint0_linear_0_2712" x1="-25.2009" y1="53.8149" x2="1.48011" y2="102.209" gradientUnits="userSpaceOnUse">
<stop stop-color="#38B8F2"/>
<stop offset="1" stop-color="#843CF6"/>
</linearGradient>
</defs>
</svg>
