<svg width="64" height="64" viewBox="0 0 64 64" fill="none" xmlns="http://www.w3.org/2000/svg">
<g id="undraw_connected_re_lmq2">
<g id="Group">
<path id="Mask" d="M63.5 32.0013V32.0016C63.5078 42.3074 58.468 51.9635 50.0094 57.8491L50.0082 57.8499C48.8347 58.6713 47.6057 59.4106 46.3301 60.0625L46.3294 60.0628C45.9061 60.28 45.4807 60.4859 45.0479 60.6807L45.0449 60.6821C44.6553 60.8606 44.2629 61.0285 43.8643 61.1885L43.8629 61.1891C38.9123 63.1938 33.5346 63.9113 28.2318 63.2746L28.2309 63.2745C27.3137 63.1659 26.4085 63.0167 25.5152 62.8268C25.5038 62.8244 25.4923 62.822 25.4811 62.8196C25.4716 62.8176 25.4622 62.8157 25.4533 62.8138L25.3977 62.8022L25.3962 62.8019C23.5243 62.4059 21.6934 61.8362 19.9274 61.1L19.9267 61.0997C5.33132 55.0401 -2.51528 39.1017 1.58207 23.8369C5.67942 8.57202 20.4521 -1.29315 36.1194 0.772714C51.7868 2.83858 63.4983 16.1959 63.5 32.0013Z" fill="#F9F9F9" stroke="#B2BEC3"/>
<mask id="mask0_0_2688" style="mask-type:luminance" maskUnits="userSpaceOnUse" x="0" y="0" width="64" height="64">
<path id="Mask_2" d="M63.5 32.0013V32.0016C63.5078 42.3074 58.468 51.9635 50.0094 57.8491L50.0082 57.8499C48.8347 58.6713 47.6057 59.4106 46.3301 60.0625L46.3294 60.0628C45.9061 60.28 45.4807 60.4859 45.0479 60.6807L45.0449 60.6821C44.6553 60.8606 44.2629 61.0285 43.8643 61.1885L43.8629 61.1891C38.9123 63.1938 33.5346 63.9113 28.2318 63.2746L28.2309 63.2745C27.3137 63.1659 26.4085 63.0167 25.5152 62.8268C25.5038 62.8244 25.4923 62.822 25.4811 62.8196C25.4716 62.8176 25.4622 62.8157 25.4533 62.8138L25.3977 62.8022L25.3962 62.8019C23.5243 62.4059 21.6934 61.8362 19.9274 61.1L19.9267 61.0997C5.33132 55.0401 -2.51528 39.1017 1.58207 23.8369C5.67942 8.57202 20.4521 -1.29315 36.1194 0.772714C51.7868 2.83858 63.4983 16.1959 63.5 32.0013Z" fill="white" stroke="white"/>
</mask>
<g mask="url(#mask0_0_2688)">
<g id="Group_2">
<path id="Path" d="M41.279 11.0248C41.2354 10.9743 41.1877 10.9282 41.14 10.8821C35.5403 5.4221 26.589 5.487 21.0691 11.0276C21.0398 11.0537 21.0146 11.0798 20.9894 11.1058C20.9558 11.1363 20.9265 11.1666 20.897 11.1971C18.2604 13.9207 16.8164 17.5819 16.8842 21.3721L17.0406 30.3307C17.0607 31.3903 17.9342 32.2338 18.9938 32.2169L43.7367 31.7851C44.7962 31.765 45.6398 30.8914 45.6229 29.8318L45.4665 20.8732C45.4054 17.1705 43.9032 13.6376 41.279 11.0248Z" fill="black"/>
<circle id="Oval" cx="31.5767" cy="21.4698" r="10.4794" transform="rotate(-1 31.5767 21.4698)" fill="#FFB7B7"/>
<path id="Path_2" d="M43.109 20.3847L41.721 11.7633C41.6781 11.4987 41.5386 11.2593 41.3294 11.0916C41.2589 11.0371 41.1821 10.9912 41.1007 10.9548C34.7139 8.10051 28.2895 8.21265 22.006 11.2796C21.9221 11.3201 21.844 11.3717 21.7739 11.433C21.7488 11.4548 21.7236 11.4808 21.6985 11.5069C21.5322 11.6847 21.4309 11.9136 21.411 12.1562L20.7345 20.8264C20.7115 21.1262 20.8158 21.4218 21.0219 21.6407C21.1861 21.8153 21.4048 21.9288 21.642 21.9628C21.6997 21.974 21.7585 21.9787 21.8172 21.9768L23.9161 21.9401C24.3302 21.9315 24.7026 21.6861 24.8738 21.3089L25.7484 19.3478C25.8633 19.0866 26.1379 18.9336 26.4205 18.9733C26.7031 19.0131 26.9248 19.2358 26.9632 19.5186L27.1674 20.9488C27.2455 21.4802 27.7048 21.8718 28.2419 21.8646L42.0765 21.6231C42.2576 21.6209 42.4348 21.5707 42.5903 21.4776C42.6985 21.4162 42.7953 21.3366 42.8764 21.2422C43.0746 21.0036 43.1595 20.6907 43.109 20.3847Z" fill="black"/>
<path id="Path_3" d="M55.6549 48.6275L57.9238 58.7518C55.9935 59.911 53.9854 60.9353 51.9138 61.8174C51.2262 62.1114 50.5352 62.3882 49.833 62.647L47.684 49.2763L46.8492 44.0897L54.57 43.7741L55.6549 48.6275Z" fill="#FFB7B7"/>
<path id="Path_4" d="M20.5153 44.5151L19.3229 57.896L18.7978 63.8172C15.9056 62.9911 13.0967 61.8969 10.4078 60.5488L12.3127 47.9278L12.7919 44.7449L20.5153 44.5151Z" fill="#FFB7B7"/>
<path id="Path_5" fill-rule="evenodd" clip-rule="evenodd" d="M55.6551 48.6275L47.8791 49.2429L47.8844 50.5135L47.9216 63.3132C39.9415 65.9127 31.4327 66.4478 23.1898 64.8686C21.7631 64.5977 20.3592 64.2643 18.9782 63.8683C19.7933 61.265 20.5049 58.9196 19.8651 58.4044C19.6724 58.2483 19.4912 58.0784 19.3232 57.896C16.3955 54.6845 18.0256 48.0107 18.0256 48.0107L12.3129 47.9278L10.3346 47.9006C10.3346 47.9006 12.1383 34.3401 15.9689 34.6079L20.6508 34.9353L43.3579 34.3846C43.3579 34.3846 49.8911 32.7029 51.3853 35.8013C52.1699 37.4259 53.5301 40.8486 54.6496 43.7412C55.6633 46.3698 56.4809 48.5612 56.4809 48.5612L55.6551 48.6275Z" fill="url(#paint0_linear_0_2688)"/>
</g>
</g>
</g>
</g>
<defs>
<linearGradient id="paint0_linear_0_2688" x1="-15.3792" y1="48.9503" x2="18.432" y2="100.757" gradientUnits="userSpaceOnUse">
<stop stop-color="#9B3CB7"/>
<stop offset="1" stop-color="#FF396F"/>
</linearGradient>
</defs>
</svg>
