<svg width="64" height="64" viewBox="0 0 64 64" fill="none" xmlns="http://www.w3.org/2000/svg">
<g id="Group 3">
<path id="Mask" d="M63.5 32.0013V32.0016C63.5078 42.3074 58.468 51.9635 50.0094 57.8491L50.0082 57.8499C48.8347 58.6713 47.6057 59.4106 46.3301 60.0625L46.3294 60.0628C45.9061 60.28 45.4807 60.4859 45.0479 60.6807L45.0449 60.6821C44.6553 60.8606 44.2629 61.0285 43.8643 61.1885L43.8629 61.1891C38.9123 63.1938 33.5346 63.9113 28.2318 63.2746L28.2309 63.2745C27.3137 63.1659 26.4085 63.0167 25.5152 62.8268C25.5038 62.8244 25.4923 62.822 25.4811 62.8196C25.4716 62.8176 25.4622 62.8157 25.4533 62.8138L25.3977 62.8022L25.3962 62.8019C23.5243 62.4059 21.6934 61.8362 19.9274 61.1L19.9267 61.0997C5.33132 55.0401 -2.51528 39.1017 1.58207 23.8369C5.67942 8.57202 20.4521 -1.29315 36.1194 0.772714C51.7868 2.83858 63.4983 16.1959 63.5 32.0013Z" fill="#F9F9F9" stroke="#B2BEC3"/>
<mask id="mask0_0_2737" style="mask-type:luminance" maskUnits="userSpaceOnUse" x="0" y="0" width="64" height="64">
<path id="Mask_2" d="M63.5 32.0013V32.0016C63.5078 42.3074 58.468 51.9635 50.0094 57.8491L50.0082 57.8499C48.8347 58.6713 47.6057 59.4106 46.3301 60.0625L46.3294 60.0628C45.9061 60.28 45.4807 60.4859 45.0479 60.6807L45.0449 60.6821C44.6553 60.8606 44.2629 61.0285 43.8643 61.1885L43.8629 61.1891C38.9123 63.1938 33.5346 63.9113 28.2318 63.2746L28.2309 63.2745C27.3137 63.1659 26.4085 63.0167 25.5152 62.8268C25.5038 62.8244 25.4923 62.822 25.4811 62.8196C25.4716 62.8176 25.4622 62.8157 25.4533 62.8138L25.3977 62.8022L25.3962 62.8019C23.5243 62.4059 21.6934 61.8362 19.9274 61.1L19.9267 61.0997C5.33132 55.0401 -2.51528 39.1017 1.58207 23.8369C5.67942 8.57202 20.4521 -1.29315 36.1194 0.772714C51.7868 2.83858 63.4983 16.1959 63.5 32.0013Z" fill="white" stroke="white"/>
</mask>
<g mask="url(#mask0_0_2737)">
<g id="Group 2">
<path id="Path" d="M21.2064 65.1835C19.841 64.8976 18.497 64.5477 17.1787 64.1467L21.7056 36.0763L26.3945 35.9312L34.8981 35.6624L39.2587 35.5259C39.2587 35.5259 42.352 49.1195 44.7114 64.5179C42.4922 65.13 40.2323 65.5834 37.9487 65.8747C36.0015 66.1251 34.0411 66.259 32.0779 66.2757C31.9156 66.28 31.7535 66.28 31.5914 66.28C30.5206 66.28 29.4539 66.2459 28.4 66.1776C27.4783 66.1179 26.5654 66.0368 25.6608 65.9259C24.2656 65.7595 22.8875 65.5376 21.5306 65.2475C21.471 65.2389 21.4112 65.2261 21.3514 65.2133C21.3045 65.2048 21.2533 65.192 21.2064 65.1835Z" fill="#CBCBCB"/>
<path id="Combined Shape" fill-rule="evenodd" clip-rule="evenodd" d="M52.0247 61.8768L52.001 61.8877L52.0009 61.8877L52.0008 61.8877C51.8586 61.9528 51.7092 62.021 51.5639 62.0816C50.3735 62.6107 49.1574 63.0928 47.9201 63.5195C46.8662 63.8907 45.7967 64.2235 44.7116 64.5179C42.4924 65.13 40.2325 65.5834 37.9489 65.8747C36.0017 66.1251 34.0412 66.2591 32.0781 66.2758L31.8518 47.9846C31.3741 42.088 32.957 38.1883 34.8983 35.6624C45.2449 34.28 45.0145 34.1563 45.0145 34.1563L55.9841 39.0928L55.9628 39.1952L56.1803 39.1227L60.2251 57.1622C60.1143 57.239 59.9991 57.32 59.8839 57.4011C59.7645 57.4864 59.6407 57.5718 59.517 57.6528C58.8001 58.1478 58.0691 58.6214 57.3239 59.0736C56.2743 59.7136 55.2005 60.3152 54.1024 60.8784C54.085 60.8871 54.0665 60.8959 54.0479 60.9046C54.0302 60.9129 54.0124 60.9213 53.9957 60.9296C53.6012 61.1323 53.2044 61.3283 52.8053 61.5176C52.5658 61.6312 52.3256 61.7424 52.0845 61.8512C52.084 61.8514 52.0836 61.8516 52.0831 61.8518C52.064 61.8604 52.045 61.869 52.0259 61.8775L52.0247 61.8768ZM21.3516 65.2134L21.3517 65.2134L21.3517 65.2134C21.4114 65.2262 21.4712 65.239 21.5307 65.2475C21.5307 65.2475 27.4357 39.3275 26.3947 35.9312C20.9249 35.56 20.8866 35.2528 20.8866 35.2528L9.36657 40.1894V40.1894L9.36657 40.1894L5.22363 58.6768C6.01856 59.1789 6.8278 59.6582 7.65134 60.1147C8.33405 60.4987 9.03363 60.8614 9.74196 61.207L9.75182 61.2118C9.9577 61.3126 10.1634 61.4133 10.3734 61.5099C10.8208 61.7257 11.2729 61.9321 11.7287 62.1318C11.9272 62.2188 12.1265 62.3045 12.3264 62.3893C12.4205 62.4292 12.5147 62.4688 12.6091 62.5083L12.6091 62.5083C12.647 62.5243 12.6849 62.5402 12.7228 62.5559C12.988 62.6662 13.2535 62.7707 13.5222 62.8752C14.7183 63.3474 15.9372 63.7712 17.1789 64.1467C18.4972 64.5478 19.8412 64.8976 21.2066 65.1835C21.2299 65.1877 21.2544 65.1931 21.2789 65.1984L21.2791 65.1984C21.3036 65.2038 21.3281 65.2091 21.3516 65.2134L21.3516 65.2134Z" fill="url(#paint0_linear_0_2737)"/>
<ellipse id="Oval" cx="31.6869" cy="21.7801" rx="12.2038" ry="12.1724" transform="rotate(-73.6599 31.6869 21.7801)" fill="#9F616A"/>
<path id="Path_2" d="M19.4282 24.8399V20.0906C19.4282 20.0906 15.5981 15.5797 19.8112 14.4435C19.8112 14.4435 20.9602 3.08056 30.9183 8.38325C30.9183 8.38325 44.7065 6.11067 43.1745 14.0647C43.1745 14.0647 46.6216 11.9882 45.4726 17.2908L43.2503 25.8325C43.2503 25.8325 44.3236 20.1901 40.8765 19.4326L38.9615 18.2963C38.9615 18.2963 33.5994 23.599 25.5563 17.16C25.5563 17.16 22.1092 16.3373 22.4922 19.7462C22.8752 23.155 19.4282 24.8399 19.4282 24.8399Z" fill="black"/>
</g>
</g>
</g>
<defs>
<linearGradient id="paint0_linear_0_2737" x1="-38.7435" y1="48.3345" x2="-4.01701" y2="105.382" gradientUnits="userSpaceOnUse">
<stop stop-color="#004B91"/>
<stop offset="1" stop-color="#78CC37"/>
</linearGradient>
</defs>
</svg>
